<svg width="26" height="25" viewBox="0 0 26 25" fill="none" xmlns="http://www.w3.org/2000/svg">
<path d="M1 5.5H25" stroke="currentColor" stroke-linecap="round" stroke-linejoin="round"/>
<path d="M1 12.5H25" stroke="currentColor" stroke-linecap="round" stroke-linejoin="round"/>
<path d="M1 19.5H25" stroke="currentColor" stroke-linecap="round" stroke-linejoin="round"/>
<path d="M18 7.5C19.1046 7.5 20 6.60457 20 5.5C20 4.39543 19.1046 3.5 18 3.5C16.8954 3.5 16 4.39543 16 5.5C16 6.60457 16.8954 7.5 18 7.5Z" fill="white" stroke="currentColor" stroke-linecap="round" stroke-linejoin="round"/>
<path d="M6 14.5C7.10457 14.5 8 13.6046 8 12.5C8 11.3954 7.10457 10.5 6 10.5C4.89543 10.5 4 11.3954 4 12.5C4 13.6046 4.89543 14.5 6 14.5Z" fill="white" stroke="currentColor" stroke-linecap="round" stroke-linejoin="round"/>
<path d="M14 21.5C15.1046 21.5 16 20.6046 16 19.5C16 18.3954 15.1046 17.5 14 17.5C12.8954 17.5 12 18.3954 12 19.5C12 20.6046 12.8954 21.5 14 21.5Z" fill="white" stroke="currentColor" stroke-linecap="round" stroke-linejoin="round"/>
</svg>
