<svg width="26" height="25" viewBox="0 0 26 25" fill="none" xmlns="http://www.w3.org/2000/svg">
<path d="M5.25111 8.1919L3.4065 5.12354L5.62104 2.91L8.6884 4.75462V4.75962C9.27934 4.42173 9.91006 4.15876 10.566 3.97678L11.4328 0.502502H14.5622L15.428 3.97778C16.0839 4.15976 16.7147 4.42273 17.3056 4.76062V4.75462L20.375 2.91L22.5875 5.12254L20.7429 8.1919C21.0797 8.78337 21.3426 9.41396 21.5257 10.0695L25 10.9363V14.0657L21.5257 14.9315C21.3424 15.587 21.0795 16.2175 20.7429 16.8091L22.5875 19.8785L20.375 22.091L17.3056 20.2464V20.2414C16.7147 20.5793 16.0839 20.8422 15.428 21.0242L14.5622 24.4975H11.4328L10.567 21.0222C9.91106 20.8402 9.28034 20.5773 8.6894 20.2394V20.2444L5.62104 22.091L3.4065 19.8775L5.25111 16.8081H5.25611C4.91949 16.2165 4.65658 15.586 4.47328 14.9305L1 14.0657V10.9363L4.47428 10.0695C4.657 9.41366 4.91958 8.78274 5.25611 8.1909L5.25111 8.1919Z" stroke="currentColor" stroke-linecap="round" stroke-linejoin="round"/>
<path d="M12.9975 16.9991C15.4823 16.9991 17.4966 14.9848 17.4966 12.5C17.4966 10.0152 15.4823 8.00094 12.9975 8.00094C10.5127 8.00094 8.49844 10.0152 8.49844 12.5C8.49844 14.9848 10.5127 16.9991 12.9975 16.9991Z" stroke="currentColor" stroke-linecap="round" stroke-linejoin="round"/>
</svg>
