<svg width="24" height="25" viewBox="0 0 24 25" fill="none" xmlns="http://www.w3.org/2000/svg">
<path d="M8 1H2C1.17157 1 0.5 1.67157 0.5 2.5V8.5C0.5 9.32843 1.17157 10 2 10H8C8.82843 10 9.5 9.32843 9.5 8.5V2.5C9.5 1.67157 8.82843 1 8 1Z" stroke="currentColor"/>
<path d="M8 15H2C1.17157 15 0.5 15.6716 0.5 16.5V22.5C0.5 23.3284 1.17157 24 2 24H8C8.82843 24 9.5 23.3284 9.5 22.5V16.5C9.5 15.6716 8.82843 15 8 15Z" stroke="currentColor"/>
<path d="M22 1H16C15.1716 1 14.5 1.67157 14.5 2.5V8.5C14.5 9.32843 15.1716 10 16 10H22C22.8284 10 23.5 9.32843 23.5 8.5V2.5C23.5 1.67157 22.8284 1 22 1Z" stroke="currentColor"/>
<path d="M22 15H16C15.1716 15 14.5 15.6716 14.5 16.5V22.5C14.5 23.3284 15.1716 24 16 24H22C22.8284 24 23.5 23.3284 23.5 22.5V16.5C23.5 15.6716 22.8284 15 22 15Z" stroke="currentColor"/>
</svg>
