<svg width="24" height="25" viewBox="0 0 24 25" fill="none" xmlns="http://www.w3.org/2000/svg">
<path d="M0.5 5.5C0.5 4.67157 1.17157 4 2 4H22C22.8284 4 23.5 4.67157 23.5 5.5V22.5C23.5 23.3284 22.8284 24 22 24H2C1.17157 24 0.5 23.3284 0.5 22.5V5.5Z" stroke="currentColor"/>
<path d="M8 4L8.00886 2.57815C8.00886 2.15941 8.18924 1.75821 8.5104 1.46222C8.83157 1.16624 9.2669 1 9.72125 1H14.2876C14.742 1 15.1773 1.16624 15.4985 1.46222C15.8196 1.75821 16 2.15941 16 2.57815L15.9911 4" stroke="currentColor" stroke-linecap="round" stroke-linejoin="round"/>
<path fill-rule="evenodd" clip-rule="evenodd" d="M10.8746 20.3746C10.4601 20.3746 10.1253 20.0397 10.1253 19.6253V16.6256H7.12425C6.71115 16.6256 6.375 16.2895 6.375 15.875V13.6246C6.375 13.2115 6.71115 12.8753 7.12425 12.8753H10.1253V9.8756C10.1253 9.46115 10.4601 9.125 10.8746 9.125H13.125C13.5395 9.125 13.8742 9.46115 13.8742 9.8756V12.8753H16.8753C17.2884 12.8753 17.6246 13.2115 17.6246 13.6246V15.875C17.6246 16.2895 17.2884 16.6256 16.8753 16.6256H13.8742V19.6253C13.8742 20.0397 13.5395 20.3746 13.125 20.3746H10.8746Z" stroke="currentColor"/>
</svg>
