<svg width="24" height="25" viewBox="0 0 24 25" fill="none" xmlns="http://www.w3.org/2000/svg">
<path d="M19.28 13.0599C19.2938 14.0248 19.1157 14.9827 18.7561 15.8781C18.3964 16.7735 17.8624 17.5885 17.185 18.2757C16.5075 18.9629 15.7003 19.5085 14.8102 19.881C13.92 20.2535 12.9647 20.4453 11.9998 20.4453C11.0348 20.4453 10.0795 20.2535 9.18935 19.881C8.2992 19.5085 7.49196 18.9629 6.81455 18.2757C6.13715 17.5885 5.60309 16.7735 5.24343 15.8781C4.88376 14.9827 4.70567 14.0248 4.7195 13.0599M11.9999 24.4997V20.3389M14.0801 24.5H9.91934M15.12 5.77874H16.1606M15.12 8.89883H16.1606M15.12 12.0189H16.1606M7.8403 5.77874H8.88087M7.8403 8.89883H8.88087M7.8403 12.0189H8.88087M12.0005 17.219C10.8972 17.219 9.83913 16.7809 9.05887 16.0009C8.27862 15.2209 7.84007 14.163 7.83968 13.0597V4.73965C7.82919 4.18671 7.92905 3.63723 8.1334 3.12333C8.33776 2.60943 8.64251 2.14143 9.02984 1.74668C9.41718 1.35194 9.87932 1.03837 10.3893 0.82431C10.8992 0.610252 11.4467 0.5 11.9997 0.5C12.5528 0.5 13.1002 0.610252 13.6102 0.82431C14.1201 1.03837 14.5823 1.35194 14.9696 1.74668C15.3569 2.14143 15.6617 2.60943 15.866 3.12333C16.0704 3.63723 16.1702 4.18671 16.1598 4.73965V13.0597C16.1594 14.1627 15.721 15.2204 14.9411 16.0004C14.1612 16.7803 13.1035 17.2186 12.0005 17.219Z" stroke="currentColor" stroke-linecap="round" stroke-linejoin="round"/>
</svg>
