<svg width="26" height="25" viewBox="0 0 26 25" fill="none" xmlns="http://www.w3.org/2000/svg">
<path d="M16.5541 24.5H5.17296C4.62488 24.5003 4.08213 24.3925 3.57573 24.1828C3.06932 23.9731 2.60919 23.6657 2.22165 23.278C1.8341 22.8904 1.52673 22.4302 1.31711 21.9236C1.1075 21.4171 0.999738 20.8742 1 20.326V4.674C0.999738 4.12579 1.1075 3.5829 1.31711 3.07637C1.52673 2.56984 1.8341 2.10959 2.22165 1.72195C2.60919 1.33431 3.06932 1.02686 3.57573 0.817192C4.08213 0.607522 4.62488 0.499738 5.17296 0.5H20.8211C21.9273 0.501588 22.9878 0.941857 23.77 1.72429C24.5523 2.50672 24.9924 3.56747 24.994 4.674V16.058L16.5541 24.5ZM16.5541 24.5L16.5541 20.238C16.5531 19.6888 16.6604 19.1447 16.8701 18.6371C17.0797 18.1295 17.3875 17.6683 17.7757 17.2799C18.164 16.8916 18.6251 16.5837 19.1326 16.374C19.6401 16.1643 20.184 16.0569 20.7331 16.058H25M5.9248 7.13599H19.9713M5.9248 12.5H19.9713M5.9248 17.866H13.4449" stroke="currentColor" stroke-linecap="round" stroke-linejoin="round"/>
</svg>
