<svg width="24" height="25" viewBox="0 0 24 25" fill="none" xmlns="http://www.w3.org/2000/svg">
<path d="M19.0001 22.433V24.5H1V2.11491H3.11801M5.17401 8.54691H15.174M5.17401 12.5469H12.174M5.17401 16.5469H12.174M17.0001 2.11491H19.0001V9.11494M17.0001 15.1999L18.2391 16.5469L21.0001 13.5469M19.0001 10.6091C17.7933 11.3442 16.4129 11.7455 15.0001 11.7721V15.4011C15.001 16.028 15.1429 16.6466 15.4151 17.2112C15.6874 17.7758 16.0832 18.272 16.5731 18.6631L19.0001 20.6091L21.4281 18.6631C21.9181 18.2715 22.3138 17.7748 22.5859 17.2096C22.858 16.6445 22.9996 16.0254 23.0001 15.3981V11.7691C21.5876 11.7434 20.2072 11.3431 19.0001 10.6091ZM7.50002 0.5H12.5C13.0305 0.5 13.5392 0.710715 13.9143 1.08579C14.2893 1.46086 14.5001 1.96957 14.5001 2.50001V4.50002H5.50002V2.50001C5.50002 1.96957 5.71073 1.46086 6.08581 1.08579C6.46088 0.710715 6.96959 0.5 7.50002 0.5Z" stroke="currentColor" stroke-linecap="round" stroke-linejoin="round"/>
</svg>
