<svg width="26" height="25" viewBox="0 0 26 25" fill="none" xmlns="http://www.w3.org/2000/svg">
<path d="M21.9232 18.348V6.988C21.9238 6.62788 21.8534 6.27117 21.7161 5.93828C21.5787 5.60539 21.377 5.30286 21.1226 5.04799C20.8682 4.79312 20.566 4.59092 20.2334 4.45297C19.9007 4.31501 19.5441 4.244 19.184 4.244H10.6336M21.9232 18.348C21.3147 18.348 20.7198 18.5268 20.2138 18.8649C19.7078 19.203 19.3135 19.6835 19.0806 20.2458C18.8477 20.808 18.7868 21.4266 18.9055 22.0235C19.0242 22.6203 19.3173 23.1685 19.7476 23.5988C20.1779 24.0291 20.7261 24.3222 21.3229 24.4409C21.9198 24.5596 22.5384 24.4987 23.1006 24.2658C23.6628 24.0329 24.1434 23.6386 24.4815 23.1326C24.8195 22.6266 25 22.0317 25 21.4232C25 21.0191 24.9204 20.6191 24.7658 20.2458C24.6112 19.8725 24.3845 19.5333 24.0988 19.2476C23.8131 18.9619 23.4739 18.7352 23.1006 18.5806C22.7273 18.426 22.3272 18.348 21.9232 18.348ZM10.6336 4.244L14.3776 0.5M10.6336 4.244L14.3776 7.988M4.0768 6.652V18.012C4.07617 18.3721 4.14655 18.7288 4.28393 19.0617C4.4213 19.3946 4.62297 19.6971 4.87739 19.952C5.13181 20.2069 5.43399 20.4091 5.76664 20.547C6.09929 20.685 6.45588 20.756 6.816 20.756H15.3664M15.3664 20.756L11.6224 24.5M15.3664 20.756L11.6224 17.012M1 3.5768C1.00032 2.96872 1.1809 2.37438 1.51893 1.86891C1.85696 1.36344 2.33726 0.969536 2.89911 0.73698C3.46096 0.504424 4.07915 0.443659 4.67553 0.562368C5.27191 0.681076 5.81972 0.973928 6.24969 1.40391C6.67967 1.83388 6.97252 2.38168 7.09123 2.97807C7.20994 3.57445 7.14918 4.19263 6.91662 4.75449C6.68406 5.31634 6.29016 5.79664 5.78469 6.13467C5.27922 6.4727 4.68488 6.65328 4.0768 6.6536C3.26078 6.6536 2.47819 6.32944 1.90117 5.75243C1.32416 5.17541 1 4.39282 1 3.5768Z" stroke="currentColor" stroke-linecap="round" stroke-linejoin="round"/>
</svg>
