<svg width="26" height="25" viewBox="0 0 26 25" fill="none" xmlns="http://www.w3.org/2000/svg">
<path d="M13.0002 0.5V5.76245M16.7085 1.08727L15.0821 6.09247M20.054 2.79164L16.9606 7.04908M22.7087 5.44671L18.4513 8.54013M24.4134 8.79173L19.4082 10.4181M25.0003 12.5002H19.7378M24.4134 16.2086L19.4082 14.5822M22.7087 19.5537L18.4513 16.4603M20.054 22.2083L16.9606 17.9508M16.7085 23.9131L15.0821 18.9079M13.0002 24.5V19.2375M9.29205 23.9131L10.9185 18.9079M5.94667 22.2083L9.04009 17.9508M3.29196 19.5537L7.5494 16.4603M1.58759 16.2086L6.59279 14.5822M1 12.5002H6.26245M1.58759 8.79173L6.59279 10.4181M3.29196 5.44671L7.5494 8.54013M5.94667 2.79164L9.04009 7.04908M9.29205 1.08727L10.9185 6.09247" stroke="currentColor" stroke-linecap="round" stroke-linejoin="round"/>
</svg>
