<svg width="24" height="25" viewBox="0 0 24 25" fill="none" xmlns="http://www.w3.org/2000/svg">
<path d="M4.16131 20.9094C4.87543 19.4375 5.98946 18.1963 7.37596 17.3279C8.76247 16.4595 10.3654 15.999 12.0014 15.999C13.6374 15.999 15.2404 16.4595 16.6269 17.3279C18.0134 18.1963 19.1274 19.4375 19.8415 20.9094M23.5 12.5C23.5 18.8513 18.3513 24 12 24C5.64873 24 0.5 18.8513 0.5 12.5C0.5 6.14873 5.64873 1 12 1C18.3513 1 23.5 6.14873 23.5 12.5ZM15.4995 10.1382C15.4994 10.6532 15.3857 11.1619 15.1665 11.628C14.9474 12.094 14.6281 12.506 14.2316 12.8346C13.835 13.1632 13.3709 13.4004 12.8722 13.5291C12.3736 13.6579 11.8527 13.6751 11.3466 13.5796C10.5425 13.3712 9.82876 12.9052 9.31451 12.2529C8.80027 11.6005 8.51379 10.7977 8.4989 9.96719V8.91062C8.51403 8.08015 8.80059 7.27746 9.3148 6.62516C9.82901 5.97285 10.5426 5.5068 11.3466 5.29818C11.8527 5.20266 12.3736 5.21989 12.8722 5.34866C13.3709 5.47742 13.835 5.71456 14.2316 6.04317C14.6281 6.37178 14.9474 6.78377 15.1665 7.24983C15.3857 7.71589 15.4994 8.22454 15.4995 8.73956V10.1382Z" stroke="currentColor" stroke-linecap="round" stroke-linejoin="round"/>
</svg>
