<svg width="24" height="25" viewBox="0 0 24 25" fill="none" xmlns="http://www.w3.org/2000/svg">
<path d="M19.4999 3.00004H20.5004C21.296 3.00004 22.0589 3.31606 22.6214 3.8786C23.184 4.44113 23.5 5.20408 23.5 5.99962V21.0004C23.5 21.796 23.184 22.5589 22.6214 23.1214C22.0589 23.684 21.296 24 20.5004 24H3.49958C2.70404 24 1.94109 23.684 1.37856 23.1214C0.816027 22.5589 0.5 21.796 0.5 21.0004V5.99962C0.5 5.20408 0.816027 4.44113 1.37856 3.8786C1.94109 3.31606 2.70404 3.00004 3.49958 3.00004H4.50008M7.12495 3.00004H17.1252M0.5 9.00015H23.5M15.5937 12.5366L19.1875 16.1303M19.1875 16.1303L15.5937 19.7229M19.1875 16.1303H4.8125M8.40625 12.5366L4.8125 16.1303M4.8125 16.1303L8.40625 19.7229M5.49962 1C5.7648 1 6.01914 1.10528 6.20674 1.2927C6.39434 1.48012 6.49986 1.73436 6.50012 1.99954V3.99958C6.50012 4.26481 6.39476 4.51917 6.20722 4.70671C6.01968 4.89425 5.76532 4.9996 5.5001 4.9996C5.23487 4.9996 4.98052 4.89425 4.79297 4.70671C4.60543 4.51917 4.50008 4.26481 4.50008 3.99958V1.99954C4.50033 1.73452 4.60572 1.48043 4.79311 1.29304C4.98051 1.10564 5.2346 1.00025 5.49962 1ZM18.4994 1C18.7644 1.00025 19.0185 1.10564 19.2059 1.29304C19.3933 1.48043 19.4987 1.73452 19.499 1.99954V3.99958C19.499 4.26481 19.3936 4.51917 19.2061 4.70671C19.0185 4.89425 18.7642 4.9996 18.499 4.9996C18.2337 4.9996 17.9794 4.89425 17.7918 4.70671C17.6043 4.51917 17.4989 4.26481 17.4989 3.99958V1.99954C17.4992 1.73436 17.6047 1.48012 17.7923 1.2927C17.9799 1.10528 18.2342 1 18.4994 1Z" stroke="currentColor" stroke-linecap="round" stroke-linejoin="round"/>
</svg>
