<svg width="24" height="25" viewBox="0 0 24 25" fill="none" xmlns="http://www.w3.org/2000/svg">
<path d="M9.74998 4.05627H14.25M6.94691 24.5H17.0531C18.4045 24.5 19.5 23.4045 19.5 22.0531V2.94691C19.5 1.59552 18.4045 0.5 17.0531 0.5H6.94691C5.59552 0.5 4.5 1.59552 4.5 2.94691V22.0531C4.5 23.4045 5.59552 24.5 6.94691 24.5ZM12 20.8555C12.4142 20.8555 12.75 20.5197 12.75 20.1055C12.75 19.6913 12.4142 19.3555 12 19.3555C11.5858 19.3555 11.25 19.6913 11.25 20.1055C11.25 20.5197 11.5858 20.8555 12 20.8555Z" stroke="currentColor" stroke-linecap="round" stroke-linejoin="round"/>
</svg>
