<svg
        id="Health_Policy_Started"
        data-name="Health Policy Started"
        xmlns="http://www.w3.org/2000/svg"
        width="100%"
        height="100%"
        viewBox="0 0 24 24"
    >
        <g id="Health_-_Cross" data-name="Health - Cross">
            <g id="Button_-_BG" data-name="Button - BG">
                <rect id="bg" width="24" height="24" fill="#ff1717" opacity="0" />
            </g>
            <path
                id="Cross"
                d="M17.271,6.729V1.778A1.278,1.278,0,0,0,15.993.5H8.005A1.278,1.278,0,0,0,6.727,1.778V6.729H1.777A1.277,1.277,0,0,0,.5,8.007v7.988a1.277,1.277,0,0,0,1.277,1.278H6.727v4.951A1.277,1.277,0,0,0,8.005,23.5h7.988a1.277,1.277,0,0,0,1.278-1.276V17.273h4.951A1.278,1.278,0,0,0,23.5,15.995V8.007a1.278,1.278,0,0,0-1.278-1.278Z"
                fill="#fff"
                stroke="currentColor"
                strokeLinecap="round"
                strokeLinejoin="round"
                strokeWidth="1"
            />
        </g>
        <g id="arrow" transform="matrix(0, -1, 1, 0, 10.25, 16)">
            <path
                id="Path_3042"
                data-name="Path 3042"
                d="M7,0,3.5,3.5,0,0"
                fill="none"
                stroke="currentColor"
                strokeLinecap="round"
                strokeLinejoin="round"
                strokeWidth="1"
            />
        </g>
    </svg>