<svg width="26" height="25" viewBox="0 0 26 25" fill="none" xmlns="http://www.w3.org/2000/svg">
<path d="M1.31011 14.0031L11.4953 24.1904C11.6946 24.3887 11.9642 24.5 12.2453 24.5C12.5264 24.5 12.796 24.3887 12.9953 24.1904L24.688 12.5028C24.887 12.3037 24.9992 12.034 25 11.7526V1.56224C25 1.42262 24.9725 1.28437 24.919 1.15539C24.8655 1.02642 24.7872 0.909252 24.6884 0.810594C24.5896 0.711936 24.4724 0.633723 24.3434 0.580429C24.2143 0.527134 24.0761 0.499804 23.9365 0.500001H13.7498C13.4686 0.500106 13.1988 0.611798 12.9998 0.810572L1.31011 12.5028C1.11152 12.7019 1 12.9717 1 13.2529C1 13.5342 1.11152 13.804 1.31011 14.0031Z" stroke="currentColor" stroke-linecap="round" stroke-linejoin="round"/>
<path d="M19.6869 7.94171C20.8608 7.94171 21.8124 6.98987 21.8124 5.81572C21.8124 4.64157 20.8608 3.68973 19.6869 3.68973C18.513 3.68973 17.5614 4.64157 17.5614 5.81572C17.5614 6.98987 18.513 7.94171 19.6869 7.94171Z" stroke="currentColor" stroke-linecap="round" stroke-linejoin="round"/>
</svg>
