<svg width="26" height="25" viewBox="0 0 26 25" fill="none" xmlns="http://www.w3.org/2000/svg">
<path d="M12.9926 24.5C19.616 24.5 24.9852 19.1274 24.9852 12.5C24.9852 5.87258 19.616 0.5 12.9926 0.5C6.36928 0.5 1 5.87258 1 12.5C1 19.1274 6.36928 24.5 12.9926 24.5Z" stroke="currentColor" stroke-linecap="round" stroke-linejoin="round" stroke-dasharray="0.01 2"/>
<path d="M12.9925 0.500009C16.0401 0.496257 18.9748 1.65361 21.2003 3.73692C23.4259 5.82023 24.7752 8.6732 24.9743 11.7161C25.1734 14.7591 24.2069 17.7637 22.2718 20.1196C20.3366 22.4754 16.7399 24.5 12.9922 24.5" stroke="currentColor" stroke-linecap="round" stroke-linejoin="round"/>
<path d="M7.37109 13.334L11.0873 17.375L19.3637 8.375" stroke="currentColor" stroke-linecap="round" stroke-linejoin="round"/>
</svg>
