<svg width="24" height="25" viewBox="0 0 24 25" fill="none" xmlns="http://www.w3.org/2000/svg">
<path d="M0.500002 7.50264L1 7.50232L1 7.50227L0.500002 7.50264ZM2.40312 2.90402L2.75665 3.2576L2.75669 3.25756L2.40312 2.90402ZM17.2299 22.6824L16.8765 22.3288L16.8764 22.3288L17.2299 22.6824ZM14.0483 24V24.5V24ZM9.54866 19.5015H10.0487H9.54866ZM10.8666 16.3205L11.2201 16.6741L11.2201 16.674L10.8666 16.3205ZM15.8155 11.3712L16.1691 11.7248L16.1692 11.7247L15.8155 11.3712ZM22.1832 17.7317L22.5367 18.0853L22.5369 18.0851L22.1832 17.7317ZM13.6953 13.4908C13.5 13.2956 13.1834 13.2956 12.9882 13.4909C12.7929 13.6862 12.793 14.0028 12.9883 14.198L13.6953 13.4908ZM19.3516 20.5599C19.5469 20.7552 19.8635 20.7551 20.0587 20.5598C20.254 20.3646 20.254 20.048 20.0587 19.8527L19.3516 20.5599ZM16.8816 12.428C16.6866 12.6235 16.6871 12.9401 16.8827 13.1351C17.0782 13.33 17.3948 13.3296 17.5898 13.134L16.8816 12.428ZM19.7743 12.7007C20.0292 12.807 20.3219 12.6866 20.4282 12.4317C20.5345 12.1768 20.4141 11.884 20.1592 11.7778L19.7743 12.7007ZM13.3231 6.50234C13.5992 6.50234 13.8231 6.27848 13.8231 6.00234C13.8231 5.7262 13.5992 5.50234 13.3231 5.50234V6.50234ZM0.673928 5.50234C0.397785 5.50234 0.173928 5.7262 0.173928 6.00234C0.173928 6.27848 0.397785 6.50234 0.673928 6.50234V5.50234ZM0.673928 8.50151C0.397785 8.50151 0.173928 8.72536 0.173928 9.00151C0.173928 9.27765 0.397785 9.50151 0.673928 9.50151V8.50151ZM13.326 9.50151C13.6021 9.50151 13.826 9.27765 13.826 9.00151C13.826 8.72536 13.6021 8.50151 13.326 8.50151V9.50151ZM1.87755e-06 7.50297C0.00104949 9.12197 0.563511 10.6905 1.59154 11.9414L2.36411 11.3065C1.48297 10.2343 1.0009 8.88993 1 7.50232L1.87755e-06 7.50297ZM1.59154 11.9414C2.61958 13.1923 4.04958 14.0481 5.63792 14.3631L5.83246 13.3822C4.47097 13.1122 3.24526 12.3786 2.36411 11.3065L1.59154 11.9414ZM5.63792 14.3631C7.22626 14.6781 8.87472 14.4328 10.3025 13.669L9.83076 12.7873C8.60695 13.442 7.19394 13.6522 5.83246 13.3822L5.63792 14.3631ZM10.3025 13.669C11.7302 12.9052 12.849 11.6701 13.4681 10.1741L12.5441 9.79171C12.0134 11.0739 11.0546 12.1326 9.83076 12.7873L10.3025 13.669ZM13.4681 10.1741C14.0872 8.6781 14.1684 7.01377 13.6978 5.46464L12.741 5.75531C13.1443 7.08304 13.0747 8.5095 12.5441 9.79171L13.4681 10.1741ZM13.6978 5.46464C13.2272 3.91552 12.2339 2.57745 10.8873 1.67838L10.332 2.51006C11.4863 3.28069 12.3376 4.42758 12.741 5.75531L13.6978 5.46464ZM10.8873 1.67838C9.54063 0.779307 7.92385 0.374835 6.31239 0.533851L6.41059 1.52902C7.7919 1.39271 9.17774 1.73942 10.332 2.51006L10.8873 1.67838ZM6.31239 0.533851C4.70093 0.692866 3.19444 1.40554 2.04956 2.55048L2.75669 3.25756C3.73799 2.2762 5.02929 1.66532 6.41059 1.52902L6.31239 0.533851ZM2.04959 2.55044C1.39918 3.20078 0.883375 3.97292 0.531686 4.82273L1.45569 5.20513C1.75711 4.47679 2.19919 3.81499 2.75665 3.2576L2.04959 2.55044ZM0.531686 4.82273C0.179996 5.67254 -0.000677526 6.58333 1.90735e-06 7.50301L1 7.50227C0.999419 6.71406 1.15426 5.93346 1.45569 5.20513L0.531686 4.82273ZM16.8764 22.3288C16.505 22.7001 16.0641 22.9947 15.5789 23.1956L15.9615 24.1195C16.568 23.8683 17.1192 23.5002 17.5835 23.036L16.8764 22.3288ZM15.5789 23.1956C15.0936 23.3966 14.5735 23.5 14.0483 23.5V24.5C14.7048 24.5 15.3549 24.3707 15.9615 24.1195L15.5789 23.1956ZM14.0483 23.5C13.523 23.5 13.0029 23.3966 12.5176 23.1956L12.135 24.1195C12.7416 24.3707 13.3917 24.5 14.0483 24.5V23.5ZM12.5176 23.1956C12.0324 22.9947 11.5915 22.7001 11.2201 22.3288L10.513 23.036C10.9773 23.5002 11.5285 23.8683 12.135 24.1195L12.5176 23.1956ZM11.2201 22.3288C10.8487 21.9575 10.5541 21.5167 10.3531 21.0316L9.42924 21.4144C9.68051 22.0208 10.0488 22.5718 10.513 23.036L11.2201 22.3288ZM10.3531 21.0316C10.1521 20.5465 10.0487 20.0265 10.0487 19.5015H9.04866C9.04866 20.1579 9.17798 20.8079 9.42924 21.4144L10.3531 21.0316ZM10.0487 19.5015C10.0487 18.9764 10.1521 18.4564 10.3531 17.9713L9.42924 17.5886C9.17798 18.195 9.04866 18.845 9.04866 19.5015H10.0487ZM10.3531 17.9713C10.5541 17.4862 10.8487 17.0454 11.2201 16.6741L10.513 15.9669C10.0488 16.4311 9.68051 16.9821 9.42924 17.5886L10.3531 17.9713ZM11.2201 16.674L16.1691 11.7248L15.462 11.0177L10.513 15.967L11.2201 16.674ZM16.1692 11.7247C16.9191 10.9743 17.9365 10.5524 18.9976 10.5519L18.9971 9.55191C17.6709 9.55251 16.3993 10.0798 15.4619 11.0178L16.1692 11.7247ZM18.9976 10.5519C20.0586 10.5514 21.0764 10.9724 21.827 11.7221L22.5337 11.0146C21.5955 10.0774 20.3233 9.55131 18.9971 9.55191L18.9976 10.5519ZM21.827 11.7221C22.5776 12.4718 22.9995 13.4889 23 14.5497L24 14.5492C23.9994 13.2232 23.472 11.9518 22.5337 11.0146L21.827 11.7221ZM23 14.5497C23.0005 15.6104 22.5795 16.6279 21.8296 17.3783L22.5369 18.0851C23.4743 17.1471 24.0006 15.8752 24 14.5492L23 14.5497ZM21.8298 17.3781L16.8765 22.3288L17.5834 23.0361L22.5367 18.0853L21.8298 17.3781ZM12.9883 14.198L19.3516 20.5599L20.0587 19.8527L13.6953 13.4908L12.9883 14.198ZM17.5898 13.134C17.8697 12.8532 18.227 12.6621 18.616 12.5849L18.4214 11.604C17.8378 11.7198 17.3018 12.0066 16.8816 12.428L17.5898 13.134ZM18.616 12.5849C19.0051 12.5077 19.4083 12.548 19.7743 12.7007L20.1592 11.7778C19.61 11.5487 19.0051 11.4882 18.4214 11.604L18.616 12.5849ZM13.3231 5.50234H0.673928V6.50234H13.3231V5.50234ZM0.673928 9.50151H13.326V8.50151H0.673928V9.50151Z" fill="#4178FF"/>
</svg>
