<svg width="26" height="25" viewBox="0 0 26 25" fill="none" xmlns="http://www.w3.org/2000/svg">
<path fill-rule="evenodd" clip-rule="evenodd" d="M25 9.83334C25 9.47955 24.8596 9.14 24.6089 8.89112C24.36 8.64046 24.0204 8.50002 23.6667 8.50002H17V1.83334C17 1.47956 16.8595 1.14001 16.6089 0.891104C16.36 0.640448 16.0204 0.5 15.6667 0.5H10.3333C9.97955 0.5 9.64 0.640448 9.39112 0.891104C9.14046 1.13998 9.00002 1.47956 9.00002 1.83334V8.50002H2.33334C1.97956 8.50002 1.64001 8.64046 1.3911 8.89112C1.14045 9.14 1 9.47958 1 9.83334V15.1667C1 15.5204 1.14045 15.86 1.3911 16.1089C1.63998 16.3595 1.97956 16.5 2.33334 16.5H9.00002V23.1667C9.00002 23.5204 9.14046 23.86 9.39112 24.1089C9.64 24.3596 9.97958 24.5 10.3333 24.5H15.6667C16.0204 24.5 16.36 24.3596 16.6089 24.1089C16.8595 23.86 17 23.5204 17 23.1667V16.5H23.6667C24.0204 16.5 24.36 16.3595 24.6089 16.1089C24.8596 15.86 25 15.5204 25 15.1667V9.83334Z" stroke="currentColor" stroke-linecap="round" stroke-linejoin="round"/>
</svg>
