<svg width="24" height="25" viewBox="0 0 24 25" fill="none" xmlns="http://www.w3.org/2000/svg">
<path d="M1.23452 7.08377V4.40983C1.22871 4.05694 1.29393 3.7065 1.4263 3.37933C1.55867 3.05217 1.75548 2.75496 2.00504 2.50541C2.2546 2.25585 2.5518 2.05903 2.87897 1.92666C3.20613 1.79429 3.55658 1.72907 3.90946 1.73489H6.5834C6.74704 1.73489 6.90397 1.66988 7.01968 1.55417C7.13538 1.43847 7.20039 1.28153 7.20039 1.1179C7.20039 0.954264 7.13538 0.797332 7.01968 0.681624C6.90397 0.565917 6.74704 0.500913 6.5834 0.500913H3.90946C3.39454 0.495153 2.88365 0.592327 2.4068 0.786728C1.92995 0.98113 1.49674 1.26884 1.13261 1.63297C0.768478 1.9971 0.480766 2.43031 0.286365 2.90716C0.0919632 3.38401 -0.00521029 3.8949 0.000549585 4.40983V7.08377C0.000549587 7.2474 0.0655533 7.40433 0.181261 7.52004C0.296968 7.63575 0.453901 7.70075 0.617536 7.70075C0.781171 7.70075 0.938103 7.63575 1.05381 7.52004C1.16952 7.40433 1.23452 7.2474 1.23452 7.08377Z" fill="#4178FF"/>
<path d="M22.7658 7.08378V4.40984C22.7715 4.05712 22.7062 3.70687 22.5738 3.37989C22.4414 3.05291 22.2447 2.75587 21.9953 2.50643C21.7458 2.257 21.4488 2.06025 21.1218 1.92788C20.7948 1.79551 20.4446 1.73022 20.0919 1.7359H17.4169C17.2533 1.7359 17.0963 1.67089 16.9806 1.55519C16.8649 1.43948 16.7999 1.28255 16.7999 1.11891C16.7999 0.955275 16.8649 0.798342 16.9806 0.682635C17.0963 0.566928 17.2533 0.501924 17.4169 0.501924H20.0909C20.6057 0.496167 21.1165 0.593309 21.5933 0.787648C22.0701 0.981988 22.5032 1.26961 22.8673 1.63363C23.2315 1.99766 23.5192 2.43074 23.7137 2.90748C23.9081 3.38422 24.0054 3.895 23.9998 4.40984V7.08378C23.9998 7.24741 23.9348 7.40434 23.8191 7.52005C23.7033 7.63576 23.5464 7.70076 23.3828 7.70076C23.2191 7.70076 23.0622 7.63576 22.9465 7.52005C22.8308 7.40434 22.7658 7.24741 22.7658 7.08378Z" fill="#4178FF"/>
<path d="M1.2342 17.9173V20.5912C1.22853 20.9439 1.29382 21.2942 1.42618 21.6212C1.55855 21.9481 1.7553 22.2452 2.00474 22.4946C2.25418 22.7441 2.55121 22.9408 2.87819 23.0732C3.20518 23.2055 3.55543 23.2708 3.90814 23.2652H6.58308C6.74672 23.2652 6.90365 23.3302 7.01936 23.4459C7.13507 23.5616 7.20007 23.7185 7.20007 23.8821C7.20007 24.0458 7.13507 24.2027 7.01936 24.3184C6.90365 24.4341 6.74672 24.4991 6.58308 24.4991H3.90914C3.3943 24.5049 2.8835 24.4077 2.40671 24.2134C1.92993 24.0191 1.49677 23.7314 1.13265 23.3674C0.768534 23.0034 0.480801 22.5703 0.286339 22.0936C0.0918776 21.6168 -0.00539493 21.1061 0.000230797 20.5912V17.9173C0.0002308 17.7536 0.0652345 17.5967 0.180942 17.481C0.296649 17.3653 0.453582 17.3003 0.617217 17.3003C0.780852 17.3003 0.937785 17.3653 1.05349 17.481C1.1692 17.5967 1.2342 17.7536 1.2342 17.9173Z" fill="#4178FF"/>
<path d="M22.7658 17.9173V20.5912C22.7715 20.9439 22.7062 21.2942 22.5738 21.6212C22.4414 21.9481 22.2447 22.2452 21.9953 22.4946C21.7458 22.7441 21.4488 22.9408 21.1218 23.0732C20.7948 23.2055 20.4446 23.2708 20.0919 23.2652H17.4169C17.2533 23.2652 17.0963 23.3302 16.9806 23.4459C16.8649 23.5616 16.7999 23.7185 16.7999 23.8821C16.7999 24.0458 16.8649 24.2027 16.9806 24.3184C17.0963 24.4341 17.2533 24.4991 17.4169 24.4991H20.0909C20.6057 24.5049 21.1165 24.4077 21.5933 24.2134C22.0701 24.0191 22.5032 23.7314 22.8673 23.3674C23.2315 23.0034 23.5192 22.5703 23.7137 22.0936C23.9081 21.6168 24.0054 21.1061 23.9998 20.5912V17.9173C23.9998 17.7536 23.9348 17.5967 23.8191 17.481C23.7033 17.3653 23.5464 17.3003 23.3828 17.3003C23.2191 17.3003 23.0622 17.3653 22.9465 17.481C22.8308 17.5967 22.7658 17.7536 22.7658 17.9173Z" fill="#4178FF"/>
<path d="M6.52616 9.56447V11.2794C6.52616 11.4386 6.58937 11.5912 6.70189 11.7037C6.81441 11.8162 6.96702 11.8794 7.12615 11.8794C7.28527 11.8794 7.43788 11.8162 7.5504 11.7037C7.66292 11.5912 7.72613 11.4386 7.72613 11.2794V9.56447C7.72613 9.40534 7.66292 9.25273 7.5504 9.14021C7.43788 9.02769 7.28527 8.96448 7.12615 8.96448C6.96702 8.96448 6.81441 9.02769 6.70189 9.14021C6.58937 9.25273 6.52616 9.40534 6.52616 9.56447Z" fill="#4178FF"/>
<path d="M16.4209 9.56447V11.2794C16.4209 11.4386 16.4841 11.5912 16.5967 11.7037C16.7092 11.8162 16.8618 11.8794 17.0209 11.8794C17.1801 11.8794 17.3327 11.8162 17.4452 11.7037C17.5577 11.5912 17.6209 11.4386 17.6209 11.2794V9.56447C17.6209 9.40534 17.5577 9.25273 17.4452 9.14021C17.3327 9.02769 17.1801 8.96448 17.0209 8.96448C16.8618 8.96448 16.7092 9.02769 16.5967 9.14021C16.4841 9.25273 16.4209 9.40534 16.4209 9.56447Z" fill="#4178FF"/>
<path d="M7.78013 18.2253C8.93151 19.2822 10.4376 19.8687 12.0005 19.8687C13.5635 19.8687 15.0696 19.2822 16.2209 18.2253C16.2855 18.1697 16.3383 18.1017 16.3759 18.0253C16.4136 17.9489 16.4354 17.8657 16.4401 17.7806C16.4447 17.6955 16.4321 17.6104 16.4031 17.5303C16.374 17.4503 16.3291 17.3769 16.2709 17.3146C16.2128 17.2524 16.1426 17.2025 16.0647 17.168C15.9868 17.1336 15.9027 17.1152 15.8176 17.114C15.7324 17.1129 15.6478 17.129 15.569 17.1613C15.4902 17.1937 15.4188 17.2416 15.359 17.3023C14.4415 18.1409 13.2435 18.6059 12.0005 18.6059C10.7576 18.6059 9.55957 18.1409 8.64211 17.3023C8.58231 17.2416 8.51085 17.1937 8.43204 17.1613C8.35323 17.129 8.2687 17.1129 8.18351 17.114C8.09833 17.1152 8.01426 17.1336 7.93636 17.168C7.85845 17.2025 7.78832 17.2524 7.73017 17.3146C7.67202 17.3769 7.62707 17.4503 7.598 17.5303C7.56893 17.6104 7.55635 17.6955 7.56102 17.7806C7.56568 17.8657 7.5875 17.9489 7.62515 18.0253C7.66281 18.1017 7.71552 18.1697 7.78013 18.2253Z" fill="#4178FF"/>
<path d="M12 9.55147V13.9724C12.0085 14.0298 12.0034 14.0884 11.9851 14.1435C11.9668 14.1986 11.9359 14.2486 11.8947 14.2896C11.8536 14.3305 11.8034 14.3612 11.7482 14.3793C11.6931 14.3973 11.6344 14.4021 11.577 14.3934H11.1581C11.073 14.39 10.9882 14.4038 10.9086 14.434C10.829 14.4642 10.7564 14.5102 10.695 14.5692C10.6337 14.6281 10.5848 14.6989 10.5515 14.7772C10.5181 14.8555 10.5009 14.9397 10.5009 15.0248C10.5009 15.11 10.5181 15.1942 10.5515 15.2725C10.5848 15.3508 10.6337 15.4216 10.695 15.4805C10.7564 15.5395 10.829 15.5855 10.9086 15.6157C10.9882 15.6459 11.073 15.6597 11.1581 15.6563H11.577C11.8006 15.665 12.0236 15.6274 12.2319 15.5459C12.4403 15.4644 12.6295 15.3407 12.7878 15.1826C12.9461 15.0245 13.0701 14.8354 13.1518 14.6271C13.2336 14.4189 13.2714 14.1959 13.263 13.9724V9.55147C13.2565 9.38834 13.1871 9.23405 13.0694 9.12092C12.9517 9.0078 12.7948 8.94462 12.6315 8.94462C12.4683 8.94462 12.3113 9.0078 12.1936 9.12092C12.0759 9.23405 12.0065 9.38834 12 9.55147Z" fill="#4178FF"/>
</svg>
