<svg width="24" height="25" viewBox="0 0 24 25" fill="none" xmlns="http://www.w3.org/2000/svg">
<path d="M6.61879 16.949C5.2401 15.8072 4.29325 14.2283 3.93533 12.4744M12.002 12.0663V17.6479M14.6692 14.8578H9.33581M14.8868 6.50659C15.5612 5.58978 15.9264 4.48211 15.9295 3.34393C15.9421 2.93766 16.0536 2.5406 16.2544 2.18716C16.4225 1.88502 16.656 1.62432 16.9379 1.42416C17.2198 1.224 17.543 1.08946 17.8836 1.0304C18.2253 0.973624 18.5755 0.99659 18.9068 1.0975C19.2381 1.19841 19.5417 1.37454 19.7937 1.61214C20.1376 1.93982 20.3818 2.35816 20.498 2.81878C20.6141 3.2794 20.5976 3.7635 20.4502 4.2151C20.2689 4.78077 19.884 5.25894 19.3701 5.55683C18.3847 6.13707 17.6262 7.03548 17.2195 8.10421L16.6368 9.59545H12.4697L14.8868 6.50659ZM17.0709 23.3119C17.0732 23.4003 17.058 23.4883 17.0261 23.5708C16.9943 23.6533 16.9464 23.7288 16.8853 23.7927C16.8242 23.8567 16.7511 23.9079 16.6701 23.9435C16.5891 23.979 16.5019 23.9983 16.4135 24H7.59061C7.50226 23.9981 7.41514 23.9788 7.33427 23.9432C7.2534 23.9076 7.18037 23.8563 7.11936 23.7924C7.05836 23.7284 7.01059 23.6531 6.9788 23.5706C6.94701 23.4882 6.93183 23.4002 6.93412 23.3119V20.7741H17.0709V23.3119ZM23.4901 11.0972C23.2494 13.0998 22.5432 15.0183 21.4282 16.6991C20.3132 18.3799 18.8204 19.7764 17.069 20.7769H6.93411C5.18279 19.7763 3.68994 18.3798 2.57496 16.699C1.45998 15.0182 0.753816 13.0998 0.512961 11.0972C0.48709 10.9106 0.50004 10.7206 0.550998 10.5392C0.601956 10.3578 0.689825 10.1889 0.8091 10.043C0.922341 9.90338 1.06535 9.79081 1.22769 9.71354C1.39002 9.63627 1.56757 9.59625 1.74735 9.59642H22.2567C22.4368 9.59604 22.6147 9.63595 22.7774 9.71322C22.9401 9.7905 23.0834 9.90318 23.1969 10.043C23.3156 10.1891 23.403 10.3581 23.4535 10.5395C23.5039 10.7209 23.5164 10.9108 23.4901 11.0972Z" stroke="currentColor" stroke-linecap="round" stroke-linejoin="round"/>
</svg>
