<svg width="24" height="25" viewBox="0 0 24 25" fill="none" xmlns="http://www.w3.org/2000/svg">
    <path
        d="M16.2171 1.80506C18.7005 2.78375 20.766 4.59575 22.0596 6.93037C23.3531 9.26499 23.794 11.9768 23.3068 14.6009C22.8195 17.225 21.4344 19.5978 19.3889 21.3126C17.3434 23.0274 14.765 23.9774 12.0957 23.9996C9.42642 24.0218 6.83254 23.1149 4.7588 21.4344C2.68506 19.7538 1.26063 17.4044 0.729744 14.7888C0.198857 12.1732 0.594577 9.45438 1.84906 7.09855C3.10354 4.74273 5.13864 2.89661 7.60543 1.87672M11.9852 1V19.652M17.7268 13.9129L11.9852 19.6535L6.24405 13.9133"
        stroke="currentColor" stroke-linecap="round" stroke-linejoin="round" />
</svg>