<svg width="24" height="25" viewBox="0 0 24 25" fill="none" xmlns="http://www.w3.org/2000/svg">
<path d="M19.5 2.41667C19.2238 2.41667 19 2.64052 19 2.91667C19 3.19281 19.2238 3.41667 19.5 3.41667V2.41667ZM4.5 3.41667C4.77614 3.41667 5 3.19281 5 2.91667C5 2.64052 4.77614 2.41667 4.5 2.41667V3.41667ZM19.5 3.41667H20.5V2.41667H19.5V3.41667ZM20.5 3.41667C21.879 3.41667 23 4.53927 23 5.92857H24C24 3.99072 22.435 2.41667 20.5 2.41667V3.41667ZM23 5.92857V20.9881H24V5.92857H23ZM23 20.9881C23 22.3774 21.879 23.5 20.5 23.5V24.5C22.435 24.5 24 22.9259 24 20.9881H23ZM20.5 23.5H3.49999V24.5H20.5V23.5ZM3.49999 23.5C2.12101 23.5 1 22.3774 1 20.9881H0C0 22.9259 1.56499 24.5 3.49999 24.5V23.5ZM1 20.9881V5.92857H0V20.9881H1ZM1 5.92857C1 4.53927 2.12101 3.41667 3.49999 3.41667V2.41667C1.56499 2.41667 0 3.99072 0 5.92857H1ZM3.49999 3.41667H4.5V2.41667H3.49999V3.41667ZM6.72917 3.41667H17.2708V2.41667H6.72917V3.41667ZM5.47375 1.5C5.72661 1.5 5.93208 1.70548 5.93208 1.95833H6.93208C6.93208 1.15319 6.27889 0.5 5.47375 0.5V1.5ZM5.93208 1.95833V3.875H6.93208V1.95833H5.93208ZM5.93208 3.875C5.93208 4.12786 5.72661 4.33333 5.47375 4.33333V5.33333C6.27889 5.33333 6.93208 4.68014 6.93208 3.875H5.93208ZM5.47375 4.33333C5.22089 4.33333 5.01542 4.12786 5.01542 3.875H4.01542C4.01542 4.68014 4.66861 5.33333 5.47375 5.33333V4.33333ZM5.01542 3.875V1.95833H4.01542V3.875H5.01542ZM5.01542 1.95833C5.01542 1.70548 5.22089 1.5 5.47375 1.5V0.5C4.66861 0.5 4.01542 1.15319 4.01542 1.95833H5.01542ZM18.5262 1.5C18.7791 1.5 18.9846 1.70548 18.9846 1.95833H19.9846C19.9846 1.15319 19.3314 0.5 18.5262 0.5V1.5ZM18.9846 1.95833V3.875H19.9846V1.95833H18.9846ZM18.9846 3.875C18.9846 4.12786 18.7791 4.33333 18.5262 4.33333V5.33333C19.3314 5.33333 19.9846 4.68014 19.9846 3.875H18.9846ZM18.5262 4.33333C18.2734 4.33333 18.0679 4.12786 18.0679 3.875H17.0679C17.0679 4.68014 17.7211 5.33333 18.5262 5.33333V4.33333ZM18.0679 3.875V1.95833H17.0679V3.875H18.0679ZM18.0679 1.95833C18.0679 1.70548 18.2734 1.5 18.5262 1.5V0.5C17.7211 0.5 17.0679 1.15319 17.0679 1.95833H18.0679ZM0.5 9.5H23.5V8.5H0.5V9.5ZM4.09375 12.5712H5.53125V11.5712H4.09375V12.5712ZM5.75 12.79V14.2275H6.75V12.79H5.75ZM5.53125 14.4462H4.09375V15.4462H5.53125V14.4462ZM3.875 14.2275V12.79H2.875V14.2275H3.875ZM4.09375 14.4462C3.97294 14.4462 3.875 14.3483 3.875 14.2275H2.875C2.875 14.9006 3.42065 15.4462 4.09375 15.4462V14.4462ZM5.75 14.2275C5.75 14.3483 5.65206 14.4462 5.53125 14.4462V15.4462C6.20434 15.4462 6.75 14.9006 6.75 14.2275H5.75ZM5.53125 12.5712C5.65206 12.5712 5.75 12.6692 5.75 12.79H6.75C6.75 12.1169 6.20434 11.5712 5.53125 11.5712V12.5712ZM4.09375 11.5712C3.42065 11.5712 2.875 12.1169 2.875 12.79H3.875C3.875 12.6692 3.97294 12.5712 4.09375 12.5712V11.5712ZM4.09375 18.75H5.53125V17.75H4.09375V18.75ZM5.75 18.9687V20.4062H6.75V18.9687H5.75ZM5.53125 20.625H4.09375V21.625H5.53125V20.625ZM3.875 20.4062V18.9687H2.875V20.4062H3.875ZM4.09375 20.625C3.97294 20.625 3.875 20.5271 3.875 20.4062H2.875C2.875 21.0793 3.42065 21.625 4.09375 21.625V20.625ZM5.75 20.4062C5.75 20.5271 5.65206 20.625 5.53125 20.625V21.625C6.20434 21.625 6.75 21.0793 6.75 20.4062H5.75ZM5.53125 18.75C5.65206 18.75 5.75 18.8479 5.75 18.9687H6.75C6.75 18.2956 6.20434 17.75 5.53125 17.75V18.75ZM4.09375 17.75C3.42065 17.75 2.875 18.2956 2.875 18.9687H3.875C3.875 18.8479 3.97294 18.75 4.09375 18.75V17.75ZM11.2812 12.5712H12.7187V11.5712H11.2812V12.5712ZM12.9375 12.79V14.2275H13.9375V12.79H12.9375ZM12.7187 14.4462H11.2812V15.4462H12.7187V14.4462ZM11.0625 14.2275V12.79H10.0625V14.2275H11.0625ZM11.2812 14.4462C11.1604 14.4462 11.0625 14.3483 11.0625 14.2275H10.0625C10.0625 14.9006 10.6081 15.4462 11.2812 15.4462V14.4462ZM12.9375 14.2275C12.9375 14.3483 12.8396 14.4462 12.7187 14.4462V15.4462C13.3918 15.4462 13.9375 14.9006 13.9375 14.2275H12.9375ZM12.7187 12.5712C12.8396 12.5712 12.9375 12.6692 12.9375 12.79H13.9375C13.9375 12.1169 13.3918 11.5712 12.7187 11.5712V12.5712ZM11.2812 11.5712C10.6081 11.5712 10.0625 12.1169 10.0625 12.79H11.0625C11.0625 12.6692 11.1604 12.5712 11.2812 12.5712V11.5712ZM11.2812 18.75H12.7187V17.75H11.2812V18.75ZM12.9375 18.9687V20.4062H13.9375V18.9687H12.9375ZM12.7187 20.625H11.2812V21.625H12.7187V20.625ZM11.0625 20.4062V18.9687H10.0625V20.4062H11.0625ZM11.2812 20.625C11.1604 20.625 11.0625 20.5271 11.0625 20.4062H10.0625C10.0625 21.0793 10.6081 21.625 11.2812 21.625V20.625ZM12.9375 20.4062C12.9375 20.5271 12.8396 20.625 12.7187 20.625V21.625C13.3918 21.625 13.9375 21.0793 13.9375 20.4062H12.9375ZM12.7187 18.75C12.8396 18.75 12.9375 18.8479 12.9375 18.9687H13.9375C13.9375 18.2956 13.3918 17.75 12.7187 17.75V18.75ZM11.2812 17.75C10.6081 17.75 10.0625 18.2956 10.0625 18.9687H11.0625C11.0625 18.8479 11.1604 18.75 11.2812 18.75V17.75ZM18.4687 12.5712H19.9062V11.5712H18.4687V12.5712ZM20.125 12.79V14.2275H21.125V12.79H20.125ZM19.9062 14.4462H18.4687V15.4462H19.9062V14.4462ZM18.25 14.2275V12.79H17.25V14.2275H18.25ZM18.4687 14.4462C18.3479 14.4462 18.25 14.3483 18.25 14.2275H17.25C17.25 14.9006 17.7956 15.4462 18.4687 15.4462V14.4462ZM20.125 14.2275C20.125 14.3483 20.0271 14.4462 19.9062 14.4462V15.4462C20.5793 15.4462 21.125 14.9006 21.125 14.2275H20.125ZM19.9062 12.5712C20.0271 12.5712 20.125 12.6692 20.125 12.79H21.125C21.125 12.1169 20.5793 11.5712 19.9062 11.5712V12.5712ZM18.4687 11.5712C17.7956 11.5712 17.25 12.1169 17.25 12.79H18.25C18.25 12.6692 18.3479 12.5712 18.4687 12.5712V11.5712ZM18.4687 18.75H19.9062V17.75H18.4687V18.75ZM20.125 18.9687V20.4062H21.125V18.9687H20.125ZM19.9062 20.625H18.4687V21.625H19.9062V20.625ZM18.25 20.4062V18.9687H17.25V20.4062H18.25ZM18.4687 20.625C18.3479 20.625 18.25 20.5271 18.25 20.4062H17.25C17.25 21.0793 17.7956 21.625 18.4687 21.625V20.625ZM20.125 20.4062C20.125 20.5271 20.0271 20.625 19.9062 20.625V21.625C20.5793 21.625 21.125 21.0793 21.125 20.4062H20.125ZM19.9062 18.75C20.0271 18.75 20.125 18.8479 20.125 18.9687H21.125C21.125 18.2956 20.5793 17.75 19.9062 17.75V18.75ZM18.4687 17.75C17.7956 17.75 17.25 18.2956 17.25 18.9687H18.25C18.25 18.8479 18.3479 18.75 18.4687 18.75V17.75Z" fill="#4178FF"/>
</svg>
