<svg width="24" height="25" viewBox="0 0 24 25" fill="none" xmlns="http://www.w3.org/2000/svg">
<path d="M3.49987 10.001C3.49987 10.001 0.5 10.001 0.5 12.0004V14.9988C0.5 16.1042 3.49987 16.9997 3.49987 16.9997V10.001ZM3.49987 10.001L3.49847 9.49936C3.49847 7.24519 4.39393 5.08334 5.98787 3.4894C7.58181 1.89546 9.74366 1 11.9978 1C13.1141 0.999811 14.2195 1.21954 15.2509 1.64659C16.2822 2.07364 17.2193 2.69966 18.0087 3.48892C18.7981 4.27818 19.4243 5.21519 19.8515 6.24647C20.2787 7.27776 20.4986 8.38309 20.4986 9.49936L20.5 10.001M20.5 10.001C20.5 10.001 23.4985 10.001 23.4985 12.0004V14.9988C23.4985 16.1042 20.5 16.9997 20.5 16.9997V10.001ZM21.499 17.0013C21.499 21.0002 18.0162 22.9651 14.5003 23.001M13.4984 24H10.5C10.2332 24 9.97725 23.894 9.78856 23.7053C9.59986 23.5166 9.49386 23.2607 9.49386 22.9938C9.49386 22.7269 9.59986 22.471 9.78856 22.2823C9.97725 22.0936 10.2332 21.9876 10.5 21.9876H13.4984C13.7653 21.9876 14.0213 22.0936 14.21 22.2823C14.3986 22.471 14.5046 22.7269 14.5046 22.9938C14.5046 23.2607 14.3986 23.5166 14.21 23.7053C14.0213 23.894 13.7653 24 13.4984 24Z" stroke="currentColor" stroke-linecap="round" stroke-linejoin="round"/>
<path d="M9.31676 14.3259L9.31641 10.4346C9.31634 9.72222 10.066 9.2588 10.7032 9.57735L14.5951 11.5229C15.3015 11.876 15.3016 12.8841 14.5952 13.2372L10.7037 15.183C10.0665 15.5016 9.31682 15.0383 9.31676 14.3259Z" stroke="currentColor"/>
</svg>
