<svg width="24" height="25" viewBox="0 0 24 25" fill="none" xmlns="http://www.w3.org/2000/svg">
<path d="M18.1072 6.88235V5.53439C18.1071 4.81926 18.391 4.13337 18.8966 3.62761C19.4022 3.12184 20.088 2.83764 20.8031 2.83751C21.5182 2.83738 22.2041 3.12135 22.7099 3.62693C23.2157 4.13252 23.4999 4.81831 23.5 5.53344L23.499 6.88235M23.4971 9.58019V10.9282C23.5063 11.2879 23.4433 11.6459 23.3119 11.981C23.1806 12.316 22.9834 12.6214 22.7322 12.8791C22.4809 13.1368 22.1806 13.3415 21.849 13.4813C21.5174 13.6211 21.1611 13.6931 20.8012 13.693C20.4413 13.693 20.0851 13.6209 19.7535 13.481C19.4219 13.341 19.1217 13.1362 18.8705 12.8784C18.6193 12.6206 18.4223 12.3152 18.2911 11.9801C18.1598 11.645 18.097 11.287 18.1062 10.9272L18.1072 9.57828M20.8109 10.2464V6.20249M14.054 7.24061C14.0537 7.74362 13.9488 8.24107 13.7459 8.70134C13.543 9.16161 13.2465 9.57465 12.8754 9.91419C12.5043 10.2537 12.0666 10.5124 11.5902 10.6736C11.1137 10.8349 10.6089 10.8953 10.1079 10.851C9.18431 10.7402 8.33482 10.2903 7.72424 9.58853C7.11366 8.88678 6.78554 7.98324 6.80352 7.05322V5.97468C6.78621 5.04512 7.11465 4.14224 7.72516 3.44106C8.33567 2.73988 9.18478 2.29034 10.1079 2.17959C10.6093 2.13468 11.1145 2.19464 11.5914 2.35565C12.0684 2.51666 12.5065 2.77519 12.8781 3.1148C13.2497 3.4544 13.5465 3.86764 13.7496 4.32822C13.9527 4.78879 14.0578 5.28661 14.058 5.78998L14.054 7.24061ZM12.3364 14.2079L11.1231 15.6559C11.0382 15.7578 10.9319 15.8397 10.8118 15.896C10.6917 15.9522 10.5607 15.9814 10.4281 15.9814C10.2954 15.9814 10.1644 15.9522 10.0443 15.896C9.92425 15.8397 9.81799 15.7578 9.73309 15.6559L8.51974 14.2079C8.27606 13.9105 7.94311 13.6995 7.57017 13.606C7.19723 13.5125 6.8041 13.5416 6.44895 13.6889C4.82506 14.3956 3.41857 15.5219 2.37394 16.952C1.32931 18.3821 0.684206 20.0645 0.504885 21.8264C0.491698 21.9535 0.505282 22.0819 0.544762 22.2033C0.584242 22.3248 0.648742 22.4367 0.734102 22.5317C0.819462 22.6267 0.923787 22.7028 1.04035 22.755C1.15691 22.8072 1.28313 22.8344 1.41085 22.8349H19.4426C19.5703 22.8342 19.6964 22.8069 19.8128 22.7546C19.9293 22.7023 20.0335 22.6262 20.1188 22.5312C20.2042 22.4363 20.2687 22.3245 20.3082 22.2031C20.3478 22.0817 20.3615 21.9534 20.3486 21.8264C20.1686 20.0658 19.5234 18.3847 18.4794 16.9556C17.4353 15.5265 16.0298 14.4009 14.4072 13.6943C14.0526 13.5464 13.6598 13.5165 13.2869 13.609C12.914 13.7015 12.5808 13.9115 12.3364 14.2079Z" stroke="currentColor" stroke-linecap="round" stroke-linejoin="round"/>
</svg>
