<svg width="24" height="25" viewBox="0 0 24 25" fill="none" xmlns="http://www.w3.org/2000/svg">
<path d="M12 18.25L12.0189 17.7504C12.0063 17.7499 11.9937 17.7499 11.9812 17.7504L12 18.25ZM4.33333 1.5H19.6667V0.5H4.33333V1.5ZM19.6667 1.5C21.5076 1.5 23 2.99238 23 4.83333H24C24 2.4401 22.0599 0.5 19.6667 0.5V1.5ZM23 4.83333V20.1667H24V4.83333H23ZM23 20.1667C23 22.0076 21.5076 23.5 19.6667 23.5V24.5C22.0599 24.5 24 22.5599 24 20.1667H23ZM19.6667 23.5H4.33333V24.5H19.6667V23.5ZM4.33333 23.5C2.49238 23.5 1 22.0076 1 20.1667H0C0 22.5599 1.9401 24.5 4.33333 24.5V23.5ZM1 20.1667V4.83333H0V20.1667H1ZM1 4.83333C1 2.99238 2.49238 1.5 4.33333 1.5V0.5C1.9401 0.5 0 2.4401 0 4.83333H1ZM4.80773 24.158C5.31656 22.6298 6.27955 21.2933 7.56807 20.3269L6.96807 19.5269C5.51674 20.6154 4.43207 22.1208 3.85894 23.842L4.80773 24.158ZM7.56807 20.3269C8.85659 19.3605 10.4093 18.8102 12.0188 18.7496L11.9812 17.7504C10.1683 17.8186 8.41941 18.4384 6.96807 19.5269L7.56807 20.3269ZM11.9811 18.7496C13.5906 18.8104 15.1433 19.3607 16.4318 20.327L17.0318 19.527C15.5805 18.4386 13.8317 17.8188 12.0189 17.7504L11.9811 18.7496ZM16.4318 20.327C17.7203 21.2934 18.6833 22.6299 19.1923 24.158L20.141 23.842C19.5678 22.1208 18.4831 20.6155 17.0318 19.527L16.4318 20.327ZM12 5.84997C13.8409 5.84997 15.3333 7.34235 15.3333 9.1833H16.3333C16.3333 6.79006 14.3932 4.84996 12 4.84996V5.84997ZM15.3333 9.1833V11.1H16.3333V9.1833H15.3333ZM15.3333 11.1C15.3333 12.9409 13.8409 14.4333 12 14.4333V15.4333C14.3932 15.4333 16.3333 13.4932 16.3333 11.1H15.3333ZM12 14.4333C10.1591 14.4333 8.66667 12.9409 8.66667 11.1H7.66667C7.66667 13.4932 9.60677 15.4333 12 15.4333V14.4333ZM8.66667 11.1V9.1833H7.66667V11.1H8.66667ZM8.66667 9.1833C8.66667 7.34235 10.1591 5.84997 12 5.84997V4.84996C9.60677 4.84996 7.66667 6.79006 7.66667 9.1833H8.66667Z" fill="#4178FF"/>
</svg>
