<svg width="24" height="25" viewBox="0 0 24 25" fill="none" xmlns="http://www.w3.org/2000/svg">
<path fill-rule="evenodd" clip-rule="evenodd" d="M21.0439 9.47222C21.0439 14.7818 14.9622 21.8052 12.7737 24.161C12.3543 24.6121 11.6455 24.6132 11.225 24.1633C9.03309 21.8143 2.94686 14.8124 2.95704 9.47222C2.95704 4.51642 7.00623 0.5 12.0005 0.5C16.9947 0.5 21.0439 4.51642 21.0439 9.47222Z" stroke="currentColor" stroke-linecap="round" stroke-linejoin="round"/>
<path fill-rule="evenodd" clip-rule="evenodd" d="M16.256 9.61457C16.256 11.9647 14.3501 13.8706 12 13.8706C9.64981 13.8706 7.74503 11.9647 7.74503 9.61457C7.74503 7.26441 9.64981 5.3585 12 5.3585C14.3501 5.3585 16.256 7.2644 16.256 9.61457Z" stroke="currentColor" stroke-linecap="round" stroke-linejoin="round"/>
</svg>
