<svg width="26" height="25" viewBox="0 0 26 25" fill="none" xmlns="http://www.w3.org/2000/svg">
<path d="M3 9.00892V22.3889C2.99855 22.6656 3.0518 22.9399 3.15668 23.1959C3.26157 23.452 3.41603 23.6848 3.61117 23.881C3.80632 24.0771 4.03831 24.2328 4.29382 24.339C4.54932 24.4452 4.8233 24.4999 5.1 24.4999H20.892C21.4512 24.4986 21.9871 24.2757 22.3822 23.88C22.7773 23.4843 22.9995 22.9481 23 22.3889V9.00892M25 10.4999L14.369 1.02492C13.9931 0.687043 13.5055 0.500122 13 0.500122C12.4945 0.500122 12.0069 0.687043 11.631 1.02492L1 10.4999M16 24.4999H10V16.4999C10 15.9695 10.2107 15.4608 10.5858 15.0857C10.9609 14.7106 11.4696 14.4999 12 14.4999H14C14.5304 14.4999 15.0391 14.7106 15.4142 15.0857C15.7893 15.4608 16 15.9695 16 16.4999V24.4999Z" stroke="currentColor" stroke-linecap="round" stroke-linejoin="round"/>
</svg>
