<svg width="24" height="25" viewBox="0 0 24 25" fill="none" xmlns="http://www.w3.org/2000/svg">
<path d="M11.7108 14.8093C10.895 13.9047 9.83837 13.2483 8.66324 12.9161C7.48812 12.584 6.24246 12.5895 5.07038 12.9322C3.89829 13.2748 2.84767 13.9406 2.04004 14.8524C1.23241 15.7643 0.700784 16.8849 0.50665 18.0848C0.491909 18.1984 0.501741 18.3139 0.535488 18.4234C0.569234 18.533 0.626116 18.6341 0.702326 18.7201C0.778537 18.806 0.872318 18.8747 0.977393 18.9217C1.08247 18.9686 1.19641 18.9927 1.3116 18.9923H7.80198M18.4589 7.83886C18.4589 8.6479 18.1358 9.42382 17.5608 9.9959C16.9857 10.568 16.2057 10.8894 15.3925 10.8894C14.5792 10.8894 13.7992 10.568 13.2241 9.9959C12.6491 9.42382 12.326 8.6479 12.326 7.83886V6.05049C12.326 5.24144 12.6491 4.46553 13.2241 3.89345C13.7992 3.32136 14.5792 2.99997 15.3925 2.99997C16.2057 2.99997 16.9857 3.32136 17.5608 3.89345C18.1358 4.46553 18.4589 5.24144 18.4589 6.05049V7.83886ZM15.3915 13.9694C13.435 13.9581 11.5398 14.6478 10.0524 15.9123C8.56503 17.1768 7.58489 18.9317 7.29121 20.856C7.27272 20.9998 7.28544 21.146 7.3285 21.2846C7.37157 21.4231 7.44398 21.5509 7.54086 21.6593C7.63775 21.7677 7.75686 21.8542 7.89017 21.913C8.02348 21.9717 8.16789 22.0014 8.31369 21.9999H22.4702C22.616 22.0012 22.7603 21.9715 22.8935 21.9127C23.0267 21.8539 23.1456 21.7673 23.2424 21.659C23.3392 21.5506 23.4115 21.4229 23.4545 21.2843C23.4975 21.1458 23.5102 20.9998 23.4918 20.856C23.1981 18.9317 22.2179 17.1768 20.7306 15.9123C19.2432 14.6478 17.348 13.9581 15.3915 13.9694ZM9.3055 7.83883C9.31189 8.15839 9.25415 8.47601 9.13564 8.7731C9.01714 9.07019 8.84025 9.34078 8.61533 9.56903C8.39041 9.79728 8.12198 9.9786 7.82576 10.1024C7.52954 10.2262 7.21147 10.2899 6.89017 10.2899C6.56887 10.2899 6.2508 10.2262 5.95458 10.1024C5.65836 9.9786 5.38993 9.79728 5.16501 9.56903C4.9401 9.34078 4.76321 9.07019 4.6447 8.7731C4.52619 8.47601 4.46845 8.15839 4.47485 7.83883V6.43368C4.46845 6.11412 4.52619 5.7965 4.6447 5.49941C4.76321 5.20232 4.9401 4.93173 5.16501 4.70348C5.38993 4.47523 5.65836 4.29391 5.95458 4.17012C6.2508 4.04634 6.56887 3.98258 6.89017 3.98258C7.21147 3.98258 7.52954 4.04634 7.82576 4.17012C8.12198 4.29391 8.39041 4.47523 8.61533 4.70348C8.84025 4.93173 9.01714 5.20232 9.13564 5.49941C9.25415 5.7965 9.31189 6.11412 9.3055 6.43368V7.83883Z" stroke="currentColor" stroke-linecap="round" stroke-linejoin="round"/>
</svg>
