<svg width="24" height="25" viewBox="0 0 24 25" fill="none" xmlns="http://www.w3.org/2000/svg">
<path d="M8.16614 24.4999C8.44228 24.4999 8.66614 24.276 8.66614 23.9999C8.66614 23.7237 8.44228 23.4999 8.16614 23.4999V24.4999ZM5.74996 20.9998C5.74996 21.276 5.97382 21.4998 6.24996 21.4998C6.52611 21.4998 6.74996 21.276 6.74996 20.9998H5.74996ZM6.24996 2.00628H6.74996V2.00626L6.24996 2.00628ZM7.26483 1.00004L7.26055 1.50004H7.26483V1.00004ZM22.485 1.00004V1.50006L22.4893 1.50002L22.485 1.00004ZM23.4999 2.00628L22.9999 2.00626V2.00628H23.4999ZM23.4999 20.9998L23.9999 21.0029V20.9998H23.4999ZM20.4552 23.9999L20.4595 23.4999H20.4552V23.9999ZM6.24996 23.4999C5.97382 23.4999 5.74996 23.7237 5.74996 23.9999C5.74996 24.276 5.97382 24.4999 6.24996 24.4999V23.4999ZM11.0411 5.29119C10.765 5.29119 10.5411 5.51505 10.5411 5.79119C10.5411 6.06734 10.765 6.29119 11.0411 6.29119V5.29119ZM18.7073 6.29119C18.9834 6.29119 19.2073 6.06734 19.2073 5.79119C19.2073 5.51505 18.9834 5.29119 18.7073 5.29119V6.29119ZM11.0411 9.12498C10.765 9.12498 10.5411 9.34884 10.5411 9.62498C10.5411 9.90112 10.765 10.125 11.0411 10.125V9.12498ZM18.7073 10.125C18.9834 10.125 19.2073 9.90112 19.2073 9.62498C19.2073 9.34884 18.9834 9.12498 18.7073 9.12498V10.125ZM11.0411 12.9573C10.765 12.9573 10.5411 13.1812 10.5411 13.4573C10.5411 13.7335 10.765 13.9573 11.0411 13.9573V12.9573ZM18.7073 13.9573C18.9834 13.9573 19.2073 13.7335 19.2073 13.4573C19.2073 13.1812 18.9834 12.9573 18.7073 12.9573V13.9573ZM6.24996 12.5H6.74996V12H6.24996V12.5ZM6.24996 21.1249H6.74996H6.24996ZM0.5 21.1249H0H0.5ZM8.16614 23.4999H3.37498V24.4999H8.16614V23.4999ZM6.74996 20.9998V2.00628H5.74996V20.9998H6.74996ZM6.74996 2.00626C6.74996 1.93942 6.7632 1.87323 6.78891 1.81152L5.86584 1.42689C5.78934 1.61048 5.74996 1.8074 5.74996 2.0063L6.74996 2.00626ZM6.78891 1.81152C6.81462 1.74982 6.8523 1.69382 6.89977 1.64675L6.19569 0.936633C6.05445 1.07667 5.94234 1.24329 5.86584 1.42689L6.78891 1.81152ZM6.89977 1.64675C6.94724 1.59969 7.00356 1.56249 7.06548 1.5373L6.68874 0.610984C6.5045 0.685916 6.33692 0.796595 6.19569 0.936633L6.89977 1.64675ZM7.06548 1.5373C7.1274 1.51212 7.1937 1.49945 7.26055 1.50002L7.26912 0.500055C7.07023 0.498351 6.87298 0.536052 6.68874 0.610984L7.06548 1.5373ZM7.26483 1.50004H22.485V0.500037H7.26483V1.50004ZM22.4893 1.50002C22.5561 1.49945 22.6224 1.51212 22.6843 1.5373L23.0611 0.610984C22.8768 0.536052 22.6796 0.498351 22.4807 0.500055L22.4893 1.50002ZM22.6843 1.5373C22.7463 1.56249 22.8026 1.59969 22.85 1.64675L23.5541 0.936633C23.4129 0.796594 23.2453 0.685916 23.0611 0.610984L22.6843 1.5373ZM22.85 1.64675C22.8975 1.69382 22.9352 1.74982 22.9609 1.81152L23.884 1.42689C23.8075 1.24329 23.6954 1.07667 23.5541 0.936633L22.85 1.64675ZM22.9609 1.81152C22.9866 1.87323 22.9999 1.93941 22.9999 2.00626L23.9999 2.0063C23.9999 1.80741 23.9605 1.61048 23.884 1.42689L22.9609 1.81152ZM22.9999 2.00628V20.9998H23.9999V2.00628H22.9999ZM22.9999 20.9968C22.9978 21.328 22.9305 21.6557 22.8016 21.9609L23.7229 22.3498C23.9029 21.9234 23.997 21.4657 23.9998 21.0029L22.9999 20.9968ZM22.8016 21.9609C22.6728 22.2661 22.485 22.5428 22.249 22.7754L22.9509 23.4877C23.2805 23.1628 23.5429 22.7762 23.7229 22.3498L22.8016 21.9609ZM22.249 22.7754C22.013 23.0079 21.7335 23.1916 21.4265 23.3159L21.8018 24.2428C22.2307 24.0691 22.6212 23.8125 22.9509 23.4877L22.249 22.7754ZM21.4265 23.3159C21.1194 23.4402 20.7908 23.5028 20.4595 23.4999L20.451 24.4999C20.9137 24.5038 21.3728 24.4165 21.8018 24.2428L21.4265 23.3159ZM20.4552 23.4999H6.24996V24.4999H20.4552V23.4999ZM11.0411 6.29119H18.7073V5.29119H11.0411V6.29119ZM11.0411 10.125H18.7073V9.12498H11.0411V10.125ZM11.0411 13.9573H18.7073V12.9573H11.0411V13.9573ZM1.45881 13H6.24996V12H1.45881V13ZM5.74996 12.5V21.1249H6.74996V12.5H5.74996ZM5.74996 21.1249C5.74996 21.7548 5.49974 22.3589 5.05435 22.8043L5.76145 23.5114C6.39439 22.8784 6.74996 22.02 6.74996 21.1249H5.74996ZM5.05435 22.8043C4.60895 23.2497 4.00487 23.4999 3.37498 23.4999V24.4999C4.27008 24.4999 5.12852 24.1443 5.76145 23.5114L5.05435 22.8043ZM3.37498 23.4999C2.7451 23.4999 2.14101 23.2497 1.69562 22.8043L0.988509 23.5114C1.62144 24.1443 2.47988 24.4999 3.37498 24.4999V23.4999ZM1.69562 22.8043C1.25022 22.3589 1 21.7548 1 21.1249H0C0 22.02 0.355578 22.8784 0.988509 23.5114L1.69562 22.8043ZM1 21.1249V13.4588H0V21.1249H1ZM1 13.4588C1 13.3371 1.04834 13.2204 1.13438 13.1343L0.427274 12.4272C0.153696 12.7008 0 13.0719 0 13.4588H1ZM1.13438 13.1343C1.22042 13.0483 1.33712 13 1.45881 13V12C1.07191 12 0.700853 12.1537 0.427274 12.4272L1.13438 13.1343Z" fill="#4178FF"/>
</svg>
