<svg width="26" height="25" viewBox="0 0 26 25" fill="none" xmlns="http://www.w3.org/2000/svg">
<path d="M21.8332 16.0211L24.9988 24.5H1.00195L4.16755 16.0211M15.8088 7.01741C15.8088 8.56802 14.5518 9.82504 13.0012 9.82504C11.4505 9.82504 10.1935 8.56802 10.1935 7.01741C10.1935 5.46679 11.4505 4.20977 13.0012 4.20977C14.5518 4.20977 15.8088 5.46679 15.8088 7.01741ZM7.33214 10.412L13.0014 18.7659L18.6707 10.412C19.3734 9.38611 19.7498 8.1719 19.7505 6.92844C19.6661 5.1953 18.9182 3.56105 17.6618 2.36429C16.4053 1.16753 14.7366 0.5 13.0014 0.5C11.2662 0.5 9.59752 1.16753 8.34106 2.36429C7.0846 3.56105 6.33669 5.1953 6.25229 6.92844C6.25325 8.17187 6.62962 9.38602 7.33214 10.412Z" stroke="currentColor" stroke-linecap="round" stroke-linejoin="round"/>
</svg>
