<svg width="26" height="25" viewBox="0 0 26 25" fill="none" xmlns="http://www.w3.org/2000/svg">
<path d="M9.35009 24.4922H25V0.50769H9.35009V24.4922ZM9.35009 24.4922L9.34962 6.75866H1V24.4922L9.35009 24.4922ZM12.4682 3.64077H13.5175M16.6505 3.64077H17.6848M20.8183 3.64077H21.8526M12.4682 6.75876H13.5175M16.6505 6.75876H17.6848M20.8183 6.75874H21.8526M12.4682 9.89174H13.5175M16.6505 9.89174H17.6848M20.8183 9.89176H21.8526M12.4682 13.0247H13.5175M16.6505 13.0247H17.6848M20.8183 13.0247H21.8526M12.4682 16.1427H13.5175M16.6505 16.1427H17.6848M20.8183 16.1427H21.8526M4.13298 9.89164H9.34962V13.0246H4.13298V9.89164ZM4.13298 16.1575H9.34962V19.2905H4.13298V16.1575ZM19.7679 24.4923H14.5513V21.3593C14.5513 20.2051 15.4807 19.2757 16.635 19.2757H17.6843C18.8385 19.2757 19.7679 20.2051 19.7679 21.3593V24.4923Z" stroke="currentColor" stroke-linecap="round" stroke-linejoin="round"/>
</svg>
