<svg width="24" height="25" viewBox="0 0 24 25" fill="none" xmlns="http://www.w3.org/2000/svg">
<path d="M11.9997 2.69119L9.29235 8.43567C9.07921 8.88775 8.65515 9.20397 8.16114 9.27913L1.96641 10.2214L6.4938 14.8416C6.82815 15.1827 6.98012 15.6626 6.90286 16.1339L5.84855 22.5686L11.2764 19.5809C11.7269 19.3329 12.2725 19.333 12.723 19.5808L18.1516 22.5686L17.0965 16.1341C17.0193 15.6627 17.1712 15.1826 17.5056 14.8415L22.0337 10.2214L15.8397 9.27913C15.3457 9.20397 14.9217 8.88784 14.7085 8.43594L11.9997 2.69119ZM12.0001 0.5C12.3589 0.5 12.7175 0.695828 12.902 1.08758L16.0653 7.79618L23.1382 8.87218C23.9622 8.99898 24.2917 10.0602 23.6948 10.6695L18.5767 15.8914L19.786 23.2666C19.9266 24.1262 19.0645 24.7823 18.3255 24.3766L11.9997 20.8949L5.6746 24.3766C4.9378 24.7823 4.07355 24.1263 4.21418 23.2666L5.42265 15.8914L0.305301 10.6695C-0.292346 10.0602 0.0372389 8.99898 0.861933 8.87218L7.93555 7.79618L11.0974 1.08758C11.2823 0.695828 11.6412 0.5 12.0001 0.5Z" fill="#4178FF"/>
<path d="M5.20784 24.5C5.06427 24.4976 4.92291 24.4642 4.79346 24.402C4.66401 24.3399 4.54952 24.2505 4.45785 24.14C4.3563 24.0208 4.28239 23.8805 4.24142 23.7293C4.20044 23.5781 4.19342 23.4197 4.22085 23.2655L5.42984 15.8901L0.313414 10.6688C0.174111 10.5263 0.0770815 10.3479 0.0331215 10.1535C-0.0108385 9.95916 -5.71637e-06 9.75638 0.0644177 9.56779C0.119773 9.38811 0.224494 9.2276 0.366643 9.10454C0.508792 8.98149 0.682652 8.90086 0.868407 8.87182L7.9423 7.79627L11.1042 1.08684C11.1823 0.914092 11.3081 0.767199 11.4667 0.663328C11.6253 0.559456 11.8105 0.502553 12.0001 0.5L11.9997 20.9L5.67433 24.3815C5.53135 24.4598 5.37085 24.5006 5.20784 24.5Z" fill="#4178FF"/>
</svg>
