<svg width="26" height="25" viewBox="0 0 26 25" fill="none" xmlns="http://www.w3.org/2000/svg">
<path d="M7.07755 17.272L7.98609 20.2484C8.03841 20.4278 8.1327 20.5916 8.26083 20.7255C8.38895 20.8594 8.54705 20.9594 8.7215 21.017L14.9339 22.9569C15.1831 23.0307 15.4501 23.0092 15.6848 22.8964C15.9196 22.7836 16.1061 22.5872 16.2093 22.3441L16.8949 19.6514M21.7274 20.8489L4.27309 16.3196V7.25738L21.7274 2.72804V20.8489ZM4.27306 16.6137H2.09085C1.79164 16.6028 1.50888 16.4711 1.30452 16.2477C1.10017 16.0242 0.990878 15.7271 1.0006 15.4214V8.26765C0.990878 7.96202 1.10017 7.66492 1.30452 7.44144C1.50888 7.21795 1.79164 7.08631 2.09085 7.07535H4.27306V16.6137ZM21.7274 20.8822L23.5651 21.5195C23.7307 21.575 23.9069 21.5894 24.079 21.5612C24.2511 21.5331 24.4142 21.4634 24.5546 21.3579C24.695 21.2524 24.8086 21.1141 24.8861 20.9546C24.9636 20.7951 25.0026 20.619 24.9999 20.441V3.13427C25.0026 2.95625 24.9636 2.78016 24.8861 2.62067C24.8086 2.46118 24.695 2.32291 24.5546 2.21738C24.4142 2.11185 24.2511 2.04212 24.079 2.01401C23.9069 1.9859 23.7307 2.00022 23.5651 2.05577L21.7274 2.69832V20.8822Z" stroke="currentColor" stroke-linecap="round" stroke-linejoin="round"/>
</svg>
