<svg width="24" height="25" viewBox="0 0 24 25" fill="none" xmlns="http://www.w3.org/2000/svg">
<path d="M22.5 18.5H19.5C18.6716 18.5 18 19.1716 18 20V23C18 23.8284 18.6716 24.5 19.5 24.5H22.5C23.3284 24.5 24 23.8284 24 23V20C24 19.1716 23.3284 18.5 22.5 18.5Z" fill="#4178FF"/>
<path d="M13.5 18.5H10.5C9.67157 18.5 9 19.1716 9 20V23C9 23.8284 9.67157 24.5 10.5 24.5H13.5C14.3284 24.5 15 23.8284 15 23V20C15 19.1716 14.3284 18.5 13.5 18.5Z" fill="#4178FF"/>
<path d="M4.5 18.5H1.5C0.671573 18.5 0 19.1716 0 20V23C0 23.8284 0.671573 24.5 1.5 24.5H4.5C5.32843 24.5 6 23.8284 6 23V20C6 19.1716 5.32843 18.5 4.5 18.5Z" fill="#4178FF"/>
<path d="M22.5 9.5H19.5C18.6716 9.5 18 10.1716 18 11V14C18 14.8284 18.6716 15.5 19.5 15.5H22.5C23.3284 15.5 24 14.8284 24 14V11C24 10.1716 23.3284 9.5 22.5 9.5Z" fill="#4178FF"/>
<path d="M13.5 9.5H10.5C9.67157 9.5 9 10.1716 9 11V14C9 14.8284 9.67157 15.5 10.5 15.5H13.5C14.3284 15.5 15 14.8284 15 14V11C15 10.1716 14.3284 9.5 13.5 9.5Z" fill="#4178FF"/>
<path d="M4.5 9.5H1.5C0.671573 9.5 0 10.1716 0 11V14C0 14.8284 0.671573 15.5 1.5 15.5H4.5C5.32843 15.5 6 14.8284 6 14V11C6 10.1716 5.32843 9.5 4.5 9.5Z" fill="#4178FF"/>
<path d="M22.5 0.5H19.5C18.6716 0.5 18 1.17157 18 2V5C18 5.82843 18.6716 6.5 19.5 6.5H22.5C23.3284 6.5 24 5.82843 24 5V2C24 1.17157 23.3284 0.5 22.5 0.5Z" fill="#4178FF"/>
<path d="M13.5 0.5H10.5C9.67157 0.5 9 1.17157 9 2V5C9 5.82843 9.67157 6.5 10.5 6.5H13.5C14.3284 6.5 15 5.82843 15 5V2C15 1.17157 14.3284 0.5 13.5 0.5Z" fill="#4178FF"/>
<path d="M4.5 0.5H1.5C0.671573 0.5 0 1.17157 0 2V5C0 5.82843 0.671573 6.5 1.5 6.5H4.5C5.32843 6.5 6 5.82843 6 5V2C6 1.17157 5.32843 0.5 4.5 0.5Z" fill="#4178FF"/>
</svg>
