<svg width="24" height="25" viewBox="0 0 24 25" fill="none" xmlns="http://www.w3.org/2000/svg">
<path d="M19.7218 5.06037V21.2935C19.7197 21.6507 19.6461 22.0038 19.5054 22.3321C19.3647 22.6604 19.1597 22.9573 18.9025 23.2051C18.3735 23.7145 17.6678 23.9993 16.9334 24H7.17542C6.44095 23.9996 5.7352 23.7147 5.20629 23.2051C4.94894 22.9574 4.74383 22.6606 4.60312 22.3323C4.4624 22.004 4.38892 21.6507 4.387 21.2935V5.06037M21.1174 4.38343C21.1174 4.47284 21.0993 4.56134 21.0642 4.64359C21.0292 4.72583 20.9778 4.80014 20.9133 4.86207C20.7812 4.99003 20.6043 5.06122 20.4204 5.06042H3.69708C3.51315 5.06122 3.33623 4.99003 3.2041 4.86207C3.13961 4.80014 3.08828 4.72583 3.05321 4.64359C3.01813 4.56134 3.00005 4.47284 3 4.38343V3.03094C3.00043 2.76254 3.05487 2.49696 3.16006 2.25003C3.26525 2.00311 3.41904 1.77987 3.61229 1.59361C4.00967 1.21144 4.53996 0.998601 5.09129 1.00001H19.0334C19.5847 0.998601 20.115 1.21144 20.5123 1.59361C20.7056 1.77987 20.8594 2.00311 20.9646 2.25003C21.0698 2.49696 21.1242 2.76254 21.1246 3.03094L21.1174 4.38343ZM19.7175 18.5899H10.6624C10.4784 18.5907 10.3015 18.5195 10.1693 18.3916C10.105 18.3295 10.0538 18.2552 10.0187 18.1729C9.98365 18.0907 9.96545 18.0023 9.96524 17.9129V9.79634C9.96537 9.70694 9.98351 9.61846 10.0186 9.53623C10.0536 9.45399 10.1049 9.37968 10.1693 9.3177C10.3015 9.18974 10.4784 9.11855 10.6624 9.11935H19.7175V18.5899Z" stroke="currentColor" stroke-linecap="round" stroke-linejoin="round"/>
</svg>
