<svg width="24" height="25" viewBox="0 0 24 25" fill="none" xmlns="http://www.w3.org/2000/svg">
<path d="M19.8253 4.67424H20.8693C21.1459 4.67507 21.411 4.78532 21.6066 4.98092C21.8022 5.17652 21.9124 5.44158 21.9132 5.7182V23.456C21.9124 23.7327 21.8022 23.9977 21.6066 24.1933C21.411 24.3889 21.1459 24.4992 20.8693 24.5H7.30414C7.02752 24.4992 6.76246 24.3889 6.56686 24.1933C6.37126 23.9977 6.26101 23.7327 6.26018 23.456V22.4121M3.65109 0.5H16.1723C17.0367 0.5 17.7374 1.20074 17.7374 2.06515V18.7606C17.7374 19.625 17.0367 20.3258 16.1723 20.3258H3.65109C2.78668 20.3258 2.08594 19.625 2.08594 18.7606V2.06515C2.08594 1.20074 2.78668 0.5 3.65109 0.5Z" stroke="currentColor" stroke-linecap="round" stroke-linejoin="round"/>
</svg>
