<svg width="25" height="25" viewBox="0 0 25 25" fill="none" xmlns="http://www.w3.org/2000/svg">
<path d="M22.6619 4.58771C21.5322 3.45807 19.7089 3.45807 18.5892 4.58771L17.2812 5.89572L9.12593 14.051L5.4199 10.3449C4.29026 9.21529 2.46697 9.21529 1.34723 10.3449C0.217589 11.4746 0.217589 13.2979 1.34723 14.4176L7.09455 20.1649C7.62965 20.7099 8.36292 21.0072 9.13584 21.0072C9.90875 21.0072 10.6321 20.7 11.1771 20.1649L17.2911 14.051L22.6718 8.67029C23.8014 7.54064 23.8014 5.71736 22.6718 4.59762L22.6619 4.58771Z" stroke="currentColor"/>
<path d="M17.2813 14.0511L11.1674 20.165C10.6323 20.71 9.89899 21.0073 9.12607 21.0073C8.35316 21.0073 7.62979 20.7001 7.08479 20.165L1.33747 14.4177C0.207823 13.2881 0.207823 11.4648 1.33747 10.345C2.46711 9.21539 4.2904 9.21539 5.41014 10.345L9.11616 14.0511C11.3655 16.3004 15.0121 16.3004 17.2714 14.0511H17.2813Z" stroke="currentColor"/>
</svg>
