<svg width="26" height="25" viewBox="0 0 26 25" fill="none" xmlns="http://www.w3.org/2000/svg">
<path d="M9 4.5H25" stroke="currentColor" stroke-linecap="round" stroke-linejoin="round"/>
<path d="M9 12.5H25" stroke="currentColor" stroke-linecap="round" stroke-linejoin="round"/>
<path d="M9 20.5H25" stroke="currentColor" stroke-linecap="round" stroke-linejoin="round"/>
<path d="M3 6.5C4.10457 6.5 5 5.60457 5 4.5C5 3.39543 4.10457 2.5 3 2.5C1.89543 2.5 1 3.39543 1 4.5C1 5.60457 1.89543 6.5 3 6.5Z" fill="white" stroke="currentColor" stroke-linecap="round" stroke-linejoin="round"/>
<path d="M3 14.5C4.10457 14.5 5 13.6046 5 12.5C5 11.3954 4.10457 10.5 3 10.5C1.89543 10.5 1 11.3954 1 12.5C1 13.6046 1.89543 14.5 3 14.5Z" fill="white" stroke="currentColor" stroke-linecap="round" stroke-linejoin="round"/>
<path d="M3 22.5C4.10457 22.5 5 21.6046 5 20.5C5 19.3954 4.10457 18.5 3 18.5C1.89543 18.5 1 19.3954 1 20.5C1 21.6046 1.89543 22.5 3 22.5Z" fill="white" stroke="currentColor" stroke-linecap="round" stroke-linejoin="round"/>
</svg>
