<svg width="26" height="25" viewBox="0 0 26 25" fill="none" xmlns="http://www.w3.org/2000/svg">
<path d="M9 3.5H25" stroke="currentColor" stroke-linecap="round" stroke-linejoin="round"/>
<path d="M9 12.5H25" stroke="currentColor" stroke-linecap="round" stroke-linejoin="round"/>
<path d="M9 21.5H25" stroke="currentColor" stroke-linecap="round" stroke-linejoin="round"/>
<path d="M3 5.5C4.10457 5.5 5 4.60457 5 3.5C5 2.39543 4.10457 1.5 3 1.5C1.89543 1.5 1 2.39543 1 3.5C1 4.60457 1.89543 5.5 3 5.5Z" stroke="currentColor" stroke-linecap="round" stroke-linejoin="round"/>
<path d="M3 14.5C4.10457 14.5 5 13.6046 5 12.5C5 11.3954 4.10457 10.5 3 10.5C1.89543 10.5 1 11.3954 1 12.5C1 13.6046 1.89543 14.5 3 14.5Z" stroke="currentColor" stroke-linecap="round" stroke-linejoin="round"/>
<path d="M3 23.5C4.10457 23.5 5 22.6046 5 21.5C5 20.3954 4.10457 19.5 3 19.5C1.89543 19.5 1 20.3954 1 21.5C1 22.6046 1.89543 23.5 3 23.5Z" stroke="currentColor" stroke-linecap="round" stroke-linejoin="round"/>
</svg>
