<svg width="24" height="25" viewBox="0 0 24 25" fill="none" xmlns="http://www.w3.org/2000/svg">
<path d="M18.452 13.9186C20.0824 13.9186 21.4041 12.5937 21.4041 10.9593C21.4041 9.32493 20.0824 8 18.452 8C16.8217 8 15.5 9.32493 15.5 10.9593C15.5 12.5937 16.8217 13.9186 18.452 13.9186Z" fill="white"/>
<path d="M10.0027 14.2392C7.734 14.2053 5.52833 14.9882 3.78615 16.446C2.04397 17.9037 0.880776 19.9396 0.507728 22.184C0.488468 22.3518 0.50531 22.5217 0.55712 22.6824C0.60893 22.8431 0.694503 22.9907 0.808064 23.1154C0.921625 23.2401 1.06053 23.339 1.21542 23.4052C1.37031 23.4715 1.53756 23.5037 1.70591 23.4997H18.2941C18.4624 23.5037 18.6297 23.4715 18.7846 23.4052C18.9395 23.339 19.0784 23.2401 19.1919 23.1154C19.3055 22.9907 19.3911 22.8431 19.4429 22.6824C19.4947 22.5217 19.5115 22.3518 19.4923 22.184C19.1194 19.9405 17.957 17.9054 16.2159 16.4478C14.4749 14.9902 12.2705 14.2066 10.0027 14.2392Z" fill="white"/>
<path d="M13.6 7.16475C13.6 8.12131 13.2211 9.0387 12.5466 9.71509C11.8721 10.3915 10.9573 10.7715 10.0034 10.7715C9.04953 10.7715 8.13471 10.3915 7.46022 9.71509C6.78572 9.0387 6.40679 8.12131 6.40679 7.16475V5.10672C6.40679 4.15016 6.78572 3.23277 7.46022 2.55638C8.13471 1.87999 9.04953 1.5 10.0034 1.5C10.9573 1.5 11.8721 1.87999 12.5466 2.55638C13.2211 3.23277 13.6 4.15016 13.6 5.10672V7.16475Z" fill="white"/>
<path d="M23.5 16L20.548 13.0407M13.6 7.16475C13.6 8.12131 13.2211 9.0387 12.5466 9.71509C11.8721 10.3915 10.9573 10.7715 10.0034 10.7715C9.04953 10.7715 8.13471 10.3915 7.46022 9.71509C6.78572 9.0387 6.40679 8.12131 6.40679 7.16475V5.10672C6.40679 4.15016 6.78572 3.23277 7.46022 2.55638C8.13471 1.87999 9.04953 1.5 10.0034 1.5C10.9573 1.5 11.8721 1.87999 12.5466 2.55638C13.2211 3.23277 13.6 4.15016 13.6 5.10672V7.16475ZM10.0027 14.2392C7.734 14.2053 5.52833 14.9882 3.78615 16.446C2.04397 17.9037 0.880776 19.9396 0.507728 22.184C0.488468 22.3518 0.50531 22.5217 0.55712 22.6824C0.60893 22.8431 0.694503 22.9907 0.808064 23.1154C0.921625 23.2401 1.06053 23.339 1.21542 23.4052C1.37031 23.4715 1.53756 23.5037 1.70591 23.4997H18.2941C18.4624 23.5037 18.6297 23.4715 18.7846 23.4052C18.9395 23.339 19.0784 23.2401 19.1919 23.1154C19.3055 22.9907 19.3911 22.8431 19.4429 22.6824C19.4947 22.5217 19.5115 22.3518 19.4923 22.184C19.1194 19.9405 17.957 17.9054 16.2159 16.4478C14.4749 14.9902 12.2705 14.2066 10.0027 14.2392ZM21.4041 10.9593C21.4041 12.5937 20.0824 13.9186 18.452 13.9186C16.8217 13.9186 15.5 12.5937 15.5 10.9593C15.5 9.32493 16.8217 8 18.452 8C20.0824 8 21.4041 9.32493 21.4041 10.9593Z" stroke="currentColor" stroke-linecap="round" stroke-linejoin="round"/>
</svg>
