<svg width="24" height="25" viewBox="0 0 24 25" fill="none" xmlns="http://www.w3.org/2000/svg">
<path d="M15.7895 6.92224C15.7895 7.92228 15.3906 8.88136 14.6806 9.5885C13.9706 10.2956 13.0077 10.6929 12.0036 10.6929C10.9995 10.6929 10.0365 10.2956 9.32654 9.5885C8.61655 8.88136 8.21768 7.92228 8.21768 6.92224V4.77066C8.21768 3.77062 8.61655 2.81154 9.32654 2.1044C10.0365 1.39726 10.9995 1 12.0036 1C13.0077 1 13.9706 1.39726 14.6806 2.1044C15.3906 2.81154 15.7895 3.77062 15.7895 4.77066V6.92224Z" stroke="currentColor" stroke-linecap="round" stroke-linejoin="round"/>
<path d="M12.0029 14.3182C9.61474 14.2828 7.29298 15.1013 5.45911 16.6254C3.62523 18.1494 2.40082 20.2778 2.00813 22.6242C1.98786 22.7996 2.00559 22.9773 2.06013 23.1452C2.11466 23.3132 2.20474 23.4676 2.32428 23.598C2.44382 23.7283 2.59004 23.8316 2.75307 23.9009C2.91611 23.9702 3.09217 24.0039 3.26938 23.9996H20.7306C20.9078 24.0039 21.0839 23.9702 21.2469 23.9009C21.41 23.8316 21.5562 23.7283 21.6757 23.598C21.7953 23.4676 21.8853 23.3132 21.9399 23.1452C21.9944 22.9773 22.0121 22.7996 21.9919 22.6242C21.5993 20.2788 20.3758 18.1511 18.5431 16.6272C16.7104 15.1034 14.39 14.2842 12.0029 14.3182Z" stroke="currentColor" stroke-linecap="round" stroke-linejoin="round"/>
</svg>
