<svg width="24" height="25" viewBox="0 0 24 25" fill="none" xmlns="http://www.w3.org/2000/svg">
<path d="M6.72234 17.7538C1.61046 12.6332 -1.68241 6.07074 2.20578 2.17639C2.29432 2.0815 2.39431 1.99797 2.50343 1.9277C3.96007 0.866784 5.31603 0.55195 6.22625 1.86157L8.93965 5.7056C9.14453 5.92167 9.30094 6.17896 9.39844 6.46027C9.49595 6.74158 9.53232 7.04045 9.5051 7.33692C9.47788 7.6334 9.3877 7.92065 9.2406 8.17951C9.0935 8.43837 8.89284 8.66288 8.65205 8.83805L7.7893 9.76529C7.67815 9.89212 7.61278 10.0526 7.60365 10.2209C7.59453 10.3893 7.64218 10.5559 7.73896 10.6939C8.52753 11.8885 9.43678 12.9988 10.4524 14.0075C11.4639 15.0227 12.5715 15.9375 13.7596 16.7389C13.9102 16.8341 14.0865 16.8804 14.2644 16.8713C14.4423 16.8623 14.6131 16.7985 14.7532 16.6886L15.616 15.8261C15.7893 15.584 16.0125 15.3819 16.2706 15.2334C16.5286 15.0849 16.8155 14.9934 17.112 14.9652C17.4084 14.937 17.7074 14.9727 17.9889 15.0699C18.2703 15.167 18.5277 15.3234 18.7435 15.5285C20.6459 16.8539 21.6884 17.5828 22.682 18.2958C23.923 19.2575 23.6253 20.7152 22.6331 21.8753C22.5339 22.0076 22.4174 22.1628 22.2852 22.3066C18.4027 26.1736 11.8515 22.8917 6.72234 17.7538Z" stroke="currentColor" stroke-linejoin="round"/>
</svg>
