<svg width="26" height="26" viewBox="0 0 26 26" fill="none" xmlns="http://www.w3.org/2000/svg">
<path d="M5.25 8.69L3.4 5.62L5.62 3.41L8.69 5.26C9.28 4.93 9.91 4.66 10.57 4.48L11.44 1H14.57L15.44 4.48C16.1 4.66 16.73 4.93 17.32 5.26L20.39 3.41L22.6 5.62L20.75 8.69C21.09 9.28 21.35 9.91 21.53 10.57L25.01 11.44V14.57L21.53 15.44C21.35 16.1 21.08 16.73 20.75 17.32L22.6 20.39L20.39 22.6L17.32 20.75C16.73 21.08 16.1 21.35 15.44 21.53L14.57 25H11.44L10.57 21.52C9.91 21.34 9.28 21.07 8.69 20.74L5.62 22.59L3.4 20.38L5.25 17.31C4.91 16.72 4.65 16.09 4.47 15.43L1 14.56V11.43L4.48 10.56C4.66 9.9 4.93 9.27 5.26 8.68L5.25 8.69Z" stroke="currentColor" stroke-linecap="round" stroke-linejoin="round"/>
<path d="M17.5 13C17.5 15.49 15.49 17.5 13 17.5C10.51 17.5 8.5 15.48 8.5 13C8.5 10.52 10.51 8.5 13 8.5C15.49 8.5 17.5 10.52 17.5 13Z" stroke="currentColor" stroke-linecap="round" stroke-linejoin="round"/>
</svg>
