<svg width="24" height="25" viewBox="0 0 24 25" fill="none" xmlns="http://www.w3.org/2000/svg">
<path d="M6.63281 4.53976V3.10169C6.63281 2.5456 6.85381 2.01228 7.24719 1.61906C7.64057 1.22585 8.1741 1.00494 8.73042 1.00494H21.1841C21.7555 0.966398 22.319 1.15462 22.7524 1.52875C23.1858 1.90289 23.4541 2.43277 23.4991 3.0034V21.9966C23.4541 22.5672 23.1858 23.0971 22.7524 23.4712C22.319 23.8454 21.7555 24.0336 21.1841 23.9951H8.73042C8.17432 23.9948 7.64105 23.774 7.24775 23.381C6.85444 22.988 6.63327 22.455 6.63281 21.8992V20.4568" stroke="#4178FF" stroke-linecap="round" stroke-linejoin="round"/>
<path d="M4.38078 8.61877L0.499492 12.5M0.499492 12.5L4.38078 16.381M0.499492 12.5L7.61498 12.5L14.7305 12.5" stroke="#4178FF" stroke-linecap="round" stroke-linejoin="round"/>
</svg>
