<svg width="24" height="25" viewBox="0 0 24 25" fill="none" xmlns="http://www.w3.org/2000/svg">
<path d="M9.125 3.875H10.0833M3.375 3.875H4.33333M6.25 3.875H7.20833M0.5 6.27083H23.5M12 13.9375C10.9415 13.9375 10.0833 13.0794 10.0833 12.0208V11.0625C10.0833 10.004 10.9415 9.14583 12 9.14583C13.0585 9.14583 13.9167 10.004 13.9167 11.0625V12.0208C13.9167 13.0794 13.0585 13.9375 12 13.9375ZM7.43651 20.6458H16.5635C16.6895 20.6458 16.7917 20.5437 16.7917 20.4177C16.7917 17.8973 14.7485 15.8542 12.2282 15.8542H11.7718C9.25148 15.8542 7.20833 17.8973 7.20833 20.4177C7.20833 20.5437 7.31049 20.6458 7.43651 20.6458ZM4.33333 24H19.6667C21.7838 24 23.5 22.2838 23.5 20.1667V4.83333C23.5 2.71624 21.7838 1 19.6667 1H4.33333C2.21624 1 0.5 2.71624 0.5 4.83333V20.1667C0.5 22.2838 2.21624 24 4.33333 24Z" stroke="currentColor" stroke-linecap="round"/>
</svg>
