<svg width="24" height="25" viewBox="0 0 24 25" fill="none" xmlns="http://www.w3.org/2000/svg">
<path fill-rule="evenodd" clip-rule="evenodd" d="M13.6754 5.71411L22.5879 5.71411L13.6754 5.71411Z" stroke="currentColor" stroke-linecap="round" stroke-linejoin="round"/>
<path fill-rule="evenodd" clip-rule="evenodd" d="M19.475 1.68851L23.5 5.71352L19.475 1.68851Z" stroke="currentColor" stroke-linecap="round" stroke-linejoin="round"/>
<path fill-rule="evenodd" clip-rule="evenodd" d="M19.475 9.70935L23.5 5.68434L19.475 9.70935Z" stroke="currentColor" stroke-linecap="round" stroke-linejoin="round"/>
<path fill-rule="evenodd" clip-rule="evenodd" d="M6.63357 17.7532C1.59393 12.6325 -1.65116 6.07081 2.1817 2.1763C2.26258 2.09302 2.34454 2.01083 2.47503 1.92755C3.91046 0.866804 5.24774 0.552307 6.14395 1.86071L8.81853 5.7059C9.69963 6.98142 9.5206 7.77698 8.54136 8.83771L7.6937 9.76586C7.41653 10.0639 7.49742 10.4453 7.64517 10.694C8.069 11.4227 9.12913 12.7815 10.3197 14.0077C11.5589 15.2504 12.8315 16.2618 13.581 16.7429C13.8916 16.9083 14.2992 16.9412 14.5602 16.6925L15.4079 15.8311C16.4022 14.8361 17.2348 14.6378 18.4901 15.5331C20.3656 16.8579 21.3934 17.5877 22.3715 18.3C23.5956 19.261 23.3022 20.7195 22.323 21.88C22.2248 22.0126 22.1105 22.1616 21.98 22.3106C18.1483 26.1712 11.6894 22.8903 6.63357 17.7532V17.7532Z" stroke="currentColor" stroke-linecap="round" stroke-linejoin="round"/>
</svg>
