<svg width="26" height="25" viewBox="0 0 26 25" fill="none" xmlns="http://www.w3.org/2000/svg">
<path d="M16.652 18.2401L9.34803 14.0661M16.652 5.71802L9.34803 9.89203M25 4.674C25 6.97924 23.1312 8.84801 20.826 8.84801C18.5208 8.84801 16.652 6.97924 16.652 4.674C16.652 2.36876 18.5208 0.5 20.826 0.5C23.1312 0.5 25 2.36876 25 4.674ZM9.34801 11.978C9.34801 14.2832 7.47924 16.152 5.174 16.152C2.86876 16.152 1 14.2832 1 11.978C1 9.67273 2.86876 7.80396 5.174 7.80396C7.47924 7.80396 9.34801 9.67273 9.34801 11.978ZM25 20.326C25 22.6312 23.1312 24.5 20.826 24.5C18.5208 24.5 16.652 22.6312 16.652 20.326C16.652 18.0208 18.5208 16.152 20.826 16.152C23.1312 16.152 25 18.0208 25 20.326Z" stroke="currentColor" stroke-linecap="round" stroke-linejoin="round"/>
</svg>
