<svg width="24" height="25" viewBox="0 0 24 25" fill="none" xmlns="http://www.w3.org/2000/svg">
<path d="M22.4995 6.92454V19.1005C22.4994 19.638 22.2885 20.1541 21.9121 20.5379C21.7277 20.7256 21.5079 20.8749 21.2655 20.9772C21.0231 21.0795 20.7628 21.1328 20.4996 21.1339H13.5042C13.241 21.1328 12.9807 21.0796 12.7382 20.9773C12.4958 20.875 12.276 20.7256 12.0917 20.5379C11.715 20.1543 11.504 19.6381 11.5042 19.1005V6.92454M4.50112 18.0855V21.1299M5.20738 12.7154L7.32901 14.8677M23.5 6.41658C23.5003 6.5507 23.4476 6.67949 23.3534 6.77497C23.3073 6.82203 23.2523 6.85942 23.1916 6.88493C23.1308 6.91043 23.0656 6.92354 22.9998 6.9235H11.0002C10.9343 6.92354 10.8691 6.91043 10.8084 6.88493C10.7477 6.85942 10.6927 6.82203 10.6466 6.77497C10.5525 6.67943 10.4998 6.55068 10.5 6.41658V5.40273C10.4991 4.99999 10.6568 4.61306 10.9389 4.3256C11.0773 4.18472 11.2424 4.07281 11.4245 3.99631C11.6066 3.91981 11.8021 3.88026 11.9997 3.88H21.9993C22.1969 3.88026 22.3924 3.91981 22.5745 3.99631C22.7566 4.07281 22.9217 4.18472 23.0601 4.3256C23.3422 4.61306 23.4999 4.99999 23.499 5.40273L23.5 6.41658ZM22.4996 17.0718H15.9995C15.9336 17.0719 15.8684 17.0588 15.8077 17.0333C15.747 17.0078 15.692 16.9704 15.6459 16.9233C15.5519 16.8277 15.4993 16.699 15.4993 16.5649V10.4769C15.4993 10.3429 15.5519 10.2141 15.6459 10.1185C15.692 10.0715 15.747 10.0341 15.8077 10.0086C15.8685 9.98308 15.9337 9.96998 15.9995 9.97002H22.4996V17.0718ZM8.50098 19.6072C8.50157 20.0096 8.34393 20.3961 8.06208 20.6834C7.92376 20.8245 7.75872 20.9367 7.57659 21.0133C7.39446 21.09 7.19888 21.1296 7.00127 21.1299H2.00191C1.80429 21.1296 1.60871 21.09 1.42658 21.0133C1.24445 20.9367 1.07941 20.8245 0.941093 20.6834C0.658429 20.3965 0.5 20.0099 0.5 19.6072C0.5 19.2045 0.658429 18.8179 0.941093 18.5311C1.07941 18.3899 1.24445 18.2778 1.42658 18.2011C1.60871 18.1244 1.80429 18.0848 2.00191 18.0845H7.00127C7.19888 18.0848 7.39446 18.1244 7.57659 18.2011C7.75872 18.2778 7.92376 18.3899 8.06208 18.5311C8.34393 18.8183 8.50157 19.2048 8.50098 19.6072ZM9.10086 10.9224C9.38352 11.2093 9.54198 11.5959 9.54198 11.9986C9.54198 12.4013 9.38352 12.7879 9.10086 13.0747L5.56097 16.6654C5.42188 16.8025 5.25711 16.9109 5.07607 16.9842C4.89502 17.0575 4.70126 17.0944 4.50595 17.0927C4.31063 17.091 4.11759 17.0508 3.93784 16.9743C3.7581 16.8979 3.59519 16.7867 3.4585 16.6472C3.17884 16.3635 3.02057 15.9822 3.01717 15.5838C3.01377 15.1855 3.16553 14.8015 3.44031 14.5131L6.97637 10.9224C7.11529 10.7812 7.28072 10.6689 7.46317 10.5918C7.64512 10.515 7.8406 10.4754 8.03811 10.4754C8.23563 10.4754 8.43114 10.515 8.61309 10.5918C8.79587 10.6688 8.96163 10.7812 9.10086 10.9224Z" stroke="currentColor" stroke-linecap="round" stroke-linejoin="round"/>
</svg>
