<svg width="26" height="25" viewBox="0 0 26 25" fill="none" xmlns="http://www.w3.org/2000/svg">
<path d="M8.49849 10.9631L8.49817 10.4631C8.49276 10.4631 8.48735 10.4632 8.48195 10.4634L8.49849 10.9631ZM9.85684 10.5808L10.1174 11.0076C10.1219 11.0048 10.1263 11.002 10.1307 10.9992L9.85684 10.5808ZM15.1868 2.68412L14.7537 2.43419C14.7264 2.48152 14.707 2.533 14.6964 2.5866L15.1868 2.68412ZM17.6591 2.57617L17.2157 2.80733L17.2157 2.80735L17.6591 2.57617ZM16.5406 9.97062L16.1253 9.69217C16.0225 9.84552 16.0126 10.0431 16.0995 10.206C16.1864 10.3689 16.356 10.4706 16.5406 10.4706V9.97062ZM23.3578 9.97062V10.4706L23.3598 10.4706L23.3578 9.97062ZM24.9906 11.7817L24.4934 11.7281C24.4915 11.7459 24.4906 11.7638 24.4906 11.7817H24.9906ZM23.7072 13.6439L23.6904 13.1441C23.4552 13.152 23.2574 13.3228 23.2153 13.5543C23.1731 13.7858 23.2981 14.0153 23.5153 14.1056L23.7072 13.6439ZM23.1509 17.2001L23.1335 16.7004C22.9294 16.7076 22.7502 16.8381 22.6808 17.0301C22.6113 17.2221 22.6656 17.437 22.8179 17.5731L23.1509 17.2001ZM22.6202 20.677L22.4136 20.2217C22.263 20.29 22.1559 20.4284 22.1276 20.5914C22.0993 20.7543 22.1534 20.9207 22.2721 21.0359L22.6202 20.677ZM12.3322 23.2947L12.3052 23.794C12.3142 23.7945 12.3232 23.7947 12.3322 23.7947V23.2947ZM9.41455 22.2707L9.70558 21.8641C9.69918 21.8595 9.69267 21.8551 9.68607 21.8508L9.41455 22.2707ZM8.23462 21.8959L8.21057 22.3953L8.21406 22.3955L8.23462 21.8959ZM2.79913 19.9994H3.29913H2.79913ZM2.2504 10.6798L2.22808 11.1793C2.23552 11.1797 2.24296 11.1798 2.2504 11.1798V10.6798ZM4.54729 10.6798V11.1798C4.55474 11.1798 4.56218 11.1797 4.56961 11.1793L4.54729 10.6798ZM5.79769 11.7998H6.29769C6.29769 11.7889 6.29734 11.778 6.29663 11.7672L5.79769 11.7998ZM5.79769 21.5541L6.29663 21.5867C6.29734 21.5759 6.29769 21.565 6.29769 21.5541H5.79769ZM4.54729 22.6741L4.56961 22.1746C4.56218 22.1742 4.55474 22.1741 4.54729 22.1741V22.6741ZM2.2504 22.6741V22.1741C2.24296 22.1741 2.23552 22.1742 2.22808 22.1746L2.2504 22.6741ZM1 21.5541H0.5C0.5 21.565 0.500355 21.5759 0.501066 21.5867L1 21.5541ZM1 11.7998L0.501066 11.7672C0.500355 11.778 0.5 11.7889 0.5 11.7998H1ZM8.49882 11.4631C9.06993 11.4628 9.6299 11.3052 10.1174 11.0076L9.59632 10.1541C9.26559 10.356 8.88565 10.4629 8.49817 10.4631L8.49882 11.4631ZM10.1307 10.9992C11.5549 10.0668 12.779 8.8598 13.7313 7.44884L12.9025 6.88939C12.0245 8.19019 10.896 9.3029 9.58297 10.1625L10.1307 10.9992ZM13.7313 7.44884C14.6837 6.03788 15.3452 4.45123 15.6772 2.78164L14.6964 2.5866C14.3903 4.12583 13.7804 5.5886 12.9025 6.88939L13.7313 7.44884ZM15.6198 2.93406C15.9323 2.39273 16.2654 2.2186 16.4791 2.20612C16.6631 2.19537 16.95 2.29763 17.2157 2.80733L18.1025 2.34502C17.728 1.62681 17.1348 1.16609 16.4208 1.20782C15.7364 1.24781 15.1535 1.74161 14.7537 2.43419L15.6198 2.93406ZM17.2157 2.80735C17.6875 3.71214 17.7314 4.97313 17.4771 6.28265C17.2249 7.58155 16.6953 8.84208 16.1253 9.69217L16.9559 10.2491C17.6063 9.27903 18.1833 7.89184 18.4588 6.47329C18.7322 5.06537 18.7251 3.5392 18.1024 2.345L17.2157 2.80735ZM16.5406 10.4706H23.3578V9.47062H16.5406V10.4706ZM23.3598 10.4706C23.5196 10.47 23.6777 10.5031 23.8239 10.5677L24.2285 9.65328C23.9537 9.53168 23.6564 9.46944 23.3559 9.47062L23.3598 10.4706ZM23.8239 10.5677C23.97 10.6324 24.1008 10.7272 24.2078 10.8459L24.9506 10.1763C24.7494 9.9531 24.5033 9.77489 24.2285 9.65328L23.8239 10.5677ZM24.2078 10.8459C24.3148 10.9646 24.3956 11.1045 24.4448 11.2565L25.3962 10.9485C25.3036 10.6626 25.1518 10.3995 24.9506 10.1763L24.2078 10.8459ZM24.4448 11.2565C24.494 11.4085 24.5106 11.5693 24.4934 11.7281L25.4877 11.8354C25.5199 11.5366 25.4887 11.2344 25.3962 10.9485L24.4448 11.2565ZM24.4906 11.7817V11.7967H25.4906V11.7817H24.4906ZM24.4906 11.7967C24.4906 12.1706 24.39 12.5289 24.2285 12.7815C24.0698 13.0295 23.8829 13.1377 23.6904 13.1441L23.724 14.1436C24.3336 14.1231 24.7884 13.762 25.0709 13.3203C25.3505 12.8832 25.4906 12.3314 25.4906 11.7967H24.4906ZM23.5153 14.1056C23.7029 14.1835 23.8498 14.3464 23.9415 14.6041C24.035 14.8669 24.0586 15.2013 24.0037 15.54C23.9488 15.8791 23.8217 16.1838 23.6553 16.3947C23.4924 16.6012 23.3148 16.6941 23.1335 16.7004L23.1684 17.6998C23.715 17.6807 24.145 17.3886 24.4405 17.014C24.7325 16.6438 24.9146 16.1711 24.9909 15.6998C25.0672 15.2282 25.0439 14.7192 24.8837 14.2689C24.7216 13.8135 24.4078 13.3935 23.899 13.1821L23.5153 14.1056ZM22.8179 17.5731C23.0163 17.7503 23.1674 17.9743 23.2574 18.2246L24.1984 17.8863C24.0521 17.4793 23.8066 17.1153 23.484 16.8272L22.8179 17.5731ZM23.2574 18.2246C23.3474 18.475 23.3736 18.7439 23.3334 19.0069L24.322 19.1578C24.3872 18.7303 24.3448 18.2933 24.1984 17.8863L23.2574 18.2246ZM23.3334 19.0069C23.2933 19.2699 23.1881 19.5188 23.0275 19.7309L23.8247 20.3346C24.0858 19.9898 24.2567 19.5853 24.322 19.1578L23.3334 19.0069ZM23.0275 19.7309C22.8669 19.943 22.6558 20.1117 22.4136 20.2217L22.8268 21.1323C23.2207 20.9535 23.5636 20.6794 23.8247 20.3346L23.0275 19.7309ZM22.2721 21.0359C22.4805 21.238 22.5592 21.6602 22.4095 22.1232C22.2536 22.6051 21.971 22.7947 21.7986 22.7947V23.7947C22.6277 23.7947 23.1562 23.0638 23.3609 22.431C23.5718 21.7792 23.5605 20.8925 22.9683 20.3181L22.2721 21.0359ZM21.7986 22.7947H12.3322V23.7947H21.7986V22.7947ZM12.3591 22.7954C11.4039 22.744 10.4834 22.4209 9.70558 21.8641L9.12353 22.6773C10.0562 23.3448 11.16 23.7323 12.3052 23.794L12.3591 22.7954ZM9.68607 21.8508C9.25828 21.5742 8.76418 21.4173 8.25518 21.3963L8.21406 22.3955C8.54453 22.4091 8.86531 22.511 9.14304 22.6906L9.68607 21.8508ZM8.25868 21.3965C8.13549 21.3905 8.0868 21.3709 8.07769 21.3664C8.07493 21.3651 8.08093 21.3677 8.09029 21.3765C8.09983 21.3856 8.10693 21.3956 8.11121 21.4035C8.11781 21.4157 8.10955 21.408 8.10411 21.3504C8.09837 21.2896 8.09893 21.2212 8.09893 21.1088H7.09893C7.09893 21.198 7.09724 21.3248 7.10855 21.4445C7.12016 21.5674 7.14826 21.7254 7.23208 21.88C7.4286 22.2426 7.80078 22.3756 8.21057 22.3953L8.25868 21.3965ZM8.09893 21.1088V11.9002H7.09893V21.1088H8.09893ZM8.09893 11.9002C8.09893 11.7136 8.11223 11.6022 8.12884 11.5362C8.14372 11.4771 8.15393 11.4835 8.13408 11.5019C8.1166 11.5181 8.11437 11.5072 8.17828 11.4932C8.24723 11.4781 8.34993 11.4683 8.51504 11.4629L8.48195 10.4634C8.30747 10.4692 8.12793 10.4806 7.96454 10.5163C7.79611 10.5532 7.61143 10.6227 7.45396 10.7688C7.14108 11.0591 7.09893 11.4966 7.09893 11.9002H8.09893ZM3.54877 19.7497C3.59815 19.7497 3.64641 19.7644 3.68746 19.7918L4.24303 18.9603C4.03753 18.823 3.79592 18.7497 3.54877 18.7497V19.7497ZM3.68746 19.7918C3.72852 19.8192 3.76051 19.8582 3.77941 19.9038L4.70329 19.5211C4.6087 19.2928 4.44853 19.0976 4.24303 18.9603L3.68746 19.7918ZM3.77941 19.9038C3.7983 19.9494 3.80325 19.9996 3.79361 20.0481L4.7744 20.2431C4.82262 20.0007 4.79787 19.7495 4.70329 19.5211L3.77941 19.9038ZM3.79361 20.0481C3.78398 20.0965 3.7602 20.141 3.72529 20.1759L4.4324 20.883C4.60716 20.7082 4.72618 20.4856 4.7744 20.2431L3.79361 20.0481ZM3.72529 20.1759C3.69038 20.2108 3.6459 20.2346 3.59747 20.2442L3.79256 21.225C4.03497 21.1768 4.25763 21.0577 4.4324 20.883L3.72529 20.1759ZM3.59747 20.2442C3.54905 20.2538 3.49886 20.2489 3.45324 20.23L3.07055 21.1539C3.29889 21.2484 3.55015 21.2732 3.79256 21.225L3.59747 20.2442ZM3.45324 20.23C3.40762 20.2111 3.36863 20.1791 3.3412 20.138L2.50973 20.6936C2.64705 20.8991 2.84221 21.0593 3.07055 21.1539L3.45324 20.23ZM3.3412 20.138C3.31377 20.097 3.29913 20.0487 3.29913 19.9994H2.29913C2.29913 20.2465 2.37242 20.4881 2.50973 20.6936L3.3412 20.138ZM3.29913 19.9994C3.29913 19.9331 3.32543 19.8696 3.37225 19.8228L2.66514 19.1157C2.43079 19.3501 2.29913 19.6679 2.29913 19.9994H3.29913ZM3.37225 19.8228C3.41906 19.776 3.48256 19.7497 3.54877 19.7497V18.7497C3.21735 18.7497 2.8995 18.8814 2.66514 19.1157L3.37225 19.8228ZM2.2504 11.1798H4.54729V10.1798H2.2504V11.1798ZM4.56961 11.1793C4.75242 11.1712 4.93116 11.235 5.06747 11.3571L5.73466 10.6122C5.40345 10.3155 4.96917 10.1605 4.52498 10.1803L4.56961 11.1793ZM5.06747 11.3571C5.20378 11.4792 5.28682 11.6498 5.29876 11.8324L6.29663 11.7672C6.26761 11.3235 6.06586 10.9088 5.73466 10.6122L5.06747 11.3571ZM5.29769 11.7998V21.5541H6.29769V11.7998H5.29769ZM5.29876 21.5215C5.28682 21.7041 5.20378 21.8747 5.06747 21.9968L5.73466 22.7417C6.06586 22.4451 6.26761 22.0304 6.29663 21.5867L5.29876 21.5215ZM5.06747 21.9968C4.93116 22.1189 4.75242 22.1827 4.56961 22.1746L4.52498 23.1736C4.96917 23.1934 5.40345 23.0384 5.73466 22.7417L5.06747 21.9968ZM4.54729 22.1741H2.2504V23.1741H4.54729V22.1741ZM2.22808 22.1746C2.04527 22.1827 1.86653 22.1189 1.73022 21.9968L1.06303 22.7417C1.39424 23.0384 1.82852 23.1934 2.27271 23.1736L2.22808 22.1746ZM1.73022 21.9968C1.59391 21.8747 1.51088 21.7041 1.49893 21.5215L0.501066 21.5867C0.53008 22.0304 0.731829 22.4451 1.06303 22.7417L1.73022 21.9968ZM1.5 21.5541V11.7998H0.5V21.5541H1.5ZM1.49893 11.8324C1.51088 11.6498 1.59391 11.4792 1.73022 11.3571L1.06303 10.6122C0.731829 10.9088 0.53008 11.3235 0.501066 11.7672L1.49893 11.8324ZM1.73022 11.3571C1.86653 11.235 2.04527 11.1712 2.22808 11.1793L2.27271 10.1803C1.82852 10.1605 1.39424 10.3155 1.06303 10.6122L1.73022 11.3571Z" fill="#4178FF"/>
</svg>
