<svg width="24" height="25" viewBox="0 0 24 25" fill="none" xmlns="http://www.w3.org/2000/svg">
<path d="M8.86547 9.89134V20.327M11.996 9.89134V20.327M15.1265 9.89134V20.327M17.2131 24.5H6.77745C6.22407 24.5 5.69336 24.2802 5.30206 23.8889C4.91076 23.4976 4.69093 22.9669 4.69093 22.4135V6.76081H19.2996V22.4135C19.2996 22.9669 19.0798 23.4976 18.6885 23.8889C18.2972 24.2802 17.7664 24.5 17.2131 24.5ZM20.3417 6.76094H3.64648V4.68042C3.64648 4.40194 3.75711 4.13486 3.95403 3.93795C4.15094 3.74103 4.41802 3.6304 4.6965 3.6304H19.3052C19.5836 3.6304 19.8507 3.74103 20.0476 3.93795C20.2445 4.13486 20.3552 4.40194 20.3552 4.68042L20.3417 6.76094ZM16.1686 3.63053H7.82101V1.55001C7.82101 1.27153 7.93164 1.00446 8.12855 0.807541C8.32547 0.610626 8.59254 0.5 8.87102 0.5H15.1261C15.4046 0.5 15.6716 0.610626 15.8686 0.807541C16.0655 1.00446 16.1761 1.27153 16.1761 1.55001L16.1686 3.63053Z" stroke="currentColor" stroke-linecap="round" stroke-linejoin="round"/>
</svg>
