<svg width="24" height="25" viewBox="0 0 24 25" fill="none" xmlns="http://www.w3.org/2000/svg">
<path d="M12.5288 0.719688C12.2371 0.426771 11.7642 0.426771 11.4725 0.719688L4.34376 7.87874C4.05208 8.17166 4.05208 8.64657 4.34376 8.93949C4.63544 9.23241 5.10834 9.23241 5.40002 8.93949L12.0007 2.31081L18.6013 8.93949C18.893 9.23241 19.3659 9.23241 19.6575 8.93949C19.9492 8.64657 19.9492 8.17166 19.6575 7.87874L12.5288 0.719688Z" fill="#4178FF"/>
<path d="M5.40002 16.0605C5.10834 15.7676 4.63544 15.7676 4.34376 16.0605C4.05208 16.3534 4.05208 16.8283 4.34376 17.1213L11.4725 24.2803C11.7642 24.5732 12.2371 24.5732 12.5288 24.2803L19.6575 17.1213C19.9492 16.8283 19.9492 16.3534 19.6575 16.0605C19.3659 15.7676 18.893 15.7676 18.6013 16.0605L12.0007 22.6892L5.40002 16.0605Z" fill="#4178FF"/>
</svg>
