<svg width="24" height="25" viewBox="0 0 24 25" fill="none" xmlns="http://www.w3.org/2000/svg">
    <path
        d="M15.9054 11.3999L12.005 15.3003L8.10466 11.3999M12.0002 1V15.2983M19.9567 7.13335H21.3993C21.6746 7.13335 21.9471 7.18759 22.2014 7.29296C22.4557 7.39834 22.6868 7.55279 22.8814 7.7475C23.076 7.94221 23.2304 8.17336 23.3357 8.42776C23.4411 8.68216 23.4953 8.95482 23.4953 9.23018V21.6885C23.5328 22.2592 23.3442 22.8218 22.9702 23.2544C22.5962 23.687 22.067 23.9549 21.497 24H2.5032C1.93255 23.9549 1.4027 23.6865 1.02861 23.253C0.654516 22.8196 0.466357 22.256 0.504952 21.6847V9.22635C0.508976 8.67183 0.731211 8.14123 1.12352 7.74947C1.51582 7.35772 2.04661 7.13636 2.6009 7.13335H4.04355"
        stroke="currentColor" stroke-linecap="round" stroke-linejoin="round" />
</svg>