<svg width="26" height="26" viewBox="0 0 26 26" fill="none" xmlns="http://www.w3.org/2000/svg">
<path d="M17.2475 12.0276C18.2375 9.11756 17.5675 5.76756 15.2575 3.43756C11.9875 0.187561 6.7075 0.187561 3.4375 3.43756C0.1875 6.70756 0.1875 11.9876 3.4375 15.2476C6.1375 17.9376 10.2075 18.4076 13.3775 16.6476H14.5575V18.7376H16.6475V20.8276H18.7375V22.9176H20.8275V25.0076H24.9975V19.7876L17.2475 12.0376V12.0276Z" stroke="currentColor" stroke-linecap="round" stroke-linejoin="round"/>
<path d="M9.3475 7.25756C9.3475 8.40756 8.4175 9.34756 7.2575 9.34756C6.0975 9.34756 5.1675 8.41756 5.1675 7.25756C5.1675 6.09756 6.0975 5.16756 7.2575 5.16756C8.4175 5.16756 9.3475 6.09756 9.3475 7.25756Z" stroke="currentColor" stroke-linecap="round" stroke-linejoin="round"/>
</svg>
