<svg width="24" height="25" viewBox="0 0 24 25" fill="none" xmlns="http://www.w3.org/2000/svg">
<path d="M9 2H3C2.17157 2 1.5 2.67157 1.5 3.5V9.5C1.5 10.3284 2.17157 11 3 11H9C9.82843 11 10.5 10.3284 10.5 9.5V3.5C10.5 2.67157 9.82843 2 9 2Z" fill="white" stroke="currentColor"/>
<path d="M9 14H3C2.17157 14 1.5 14.6716 1.5 15.5V21.5C1.5 22.3284 2.17157 23 3 23H9C9.82843 23 10.5 22.3284 10.5 21.5V15.5C10.5 14.6716 9.82843 14 9 14Z" fill="white" stroke="currentColor"/>
<path d="M21 2H15C14.1716 2 13.5 2.67157 13.5 3.5V9.5C13.5 10.3284 14.1716 11 15 11H21C21.8284 11 22.5 10.3284 22.5 9.5V3.5C22.5 2.67157 21.8284 2 21 2Z" fill="white" stroke="currentColor"/>
<path d="M21 14H15C14.1716 14 13.5 14.6716 13.5 15.5V21.5C13.5 22.3284 14.1716 23 15 23H21C21.8284 23 22.5 22.3284 22.5 21.5V15.5C22.5 14.6716 21.8284 14 21 14Z" fill="white" stroke="currentColor"/>
</svg>
