<svg width="26" height="25" viewBox="0 0 26 25" fill="none" xmlns="http://www.w3.org/2000/svg">
<path d="M15.0367 13.1551V19.2073M12.0068 16.1849H18.059M3.08696 23.4565C4.23896 23.4565 5.17391 22.5226 5.17391 21.3696V10.9348M3.08696 23.4565C1.93391 23.4565 1 22.5226 1 21.3696V2.58697C1 2.01097 1.46748 1.54349 2.04348 1.54349H6.4073C6.84243 1.54349 7.23165 1.81375 7.384 2.2207L8.05078 3.9967C8.20313 4.40366 8.59235 4.67392 9.02748 4.67392H20.8261C21.9791 4.67392 22.913 5.60784 22.913 6.76088V8.84784M3.08696 23.4565H23.9565C24.5325 23.4565 25 22.9891 25 22.4131V10.9348C25 9.78175 24.0661 8.84784 22.913 8.84784M22.913 8.84784H7.26087C6.10783 8.84784 5.17391 9.78175 5.17391 10.9348M5.17391 10.9348V20.3261" stroke="currentColor" stroke-linecap="round" stroke-linejoin="round"/>
</svg>
