<svg width="26" height="25" viewBox="0 0 26 25" fill="none" xmlns="http://www.w3.org/2000/svg">
<path d="M17.0437 8.34807L9.50097 15.8908M14.5452 10.9548C13.1007 9.51042 13.1007 7.16753 14.5452 5.72311L18.6849 1.58332C20.1294 0.138892 22.4723 0.138892 23.9167 1.58332C25.3611 3.02775 25.3611 5.37064 23.9167 6.81506L19.7769 10.9548C18.3325 12.3993 15.9896 12.3993 14.5452 10.9548ZM2.08332 23.4167C0.638892 21.9722 0.638892 19.6294 2.08332 18.1849L6.22312 14.0452C7.66755 12.6007 10.0104 12.6007 11.4549 14.0452C12.8993 15.4896 12.8993 17.8325 11.4549 19.2769L7.31506 23.4167C5.87063 24.8611 3.52776 24.8611 2.08332 23.4167Z" stroke="currentColor" stroke-linecap="round" stroke-linejoin="round"/>
</svg>
