<svg width="24" height="25" viewBox="0 0 24 25" fill="none" xmlns="http://www.w3.org/2000/svg">
<path d="M0 5.27941H3.18328V16.8644H10.398V19.7606H0V5.27941Z" fill="#4178FF"/>
<path d="M12.5418 17.6479L14.4243 15.3956C15.6047 16.4848 17.1398 17.1095 18.7454 17.154C20.0384 17.154 20.8322 16.6368 20.8322 15.7886V15.7447C20.8322 14.9404 20.3357 14.5267 17.9179 13.9061C15.0036 13.1613 13.121 12.3545 13.121 9.48154V9.44017C13.1395 8.81148 13.2888 8.19354 13.5593 7.62573C13.8299 7.05793 14.2157 6.55272 14.6923 6.1423C15.1689 5.73187 15.7258 5.42524 16.3274 5.24195C16.9291 5.05866 17.5624 5.00272 18.1868 5.07771C20.1382 5.04633 22.0395 5.69653 23.563 6.9163L21.9106 9.31604C20.8281 8.47202 19.5155 7.97531 18.1455 7.8912C16.9275 7.8912 16.2836 8.44717 16.2836 9.15054V9.19192C16.2836 10.141 16.9042 10.4513 19.4048 11.0926C22.3424 11.8684 24 12.9027 24 15.4343V15.468C24 18.3409 21.8071 19.9546 18.6859 19.9546C16.4224 19.959 14.2364 19.1307 12.5443 17.6272" fill="#4178FF"/>
</svg>
