<svg width="24" height="25" viewBox="0 0 24 25" fill="none" xmlns="http://www.w3.org/2000/svg">
<path d="M3.07557 18.2625H9.69547V20.816H0V4.18403H3.07557V18.2625Z" fill="#4178FF"/>
<path d="M22.2621 16.8938C22.4298 16.8938 22.5746 16.959 22.6966 17.0893L23.9085 18.412C23.2378 19.2479 22.4108 19.8881 21.4275 20.3329C20.4519 20.7776 19.278 21 17.906 21C16.6789 21 15.5736 20.7891 14.5904 20.3674C13.6147 19.9456 12.7801 19.359 12.0865 18.6076C11.3928 17.8561 10.8593 16.959 10.4858 15.9161C10.1199 14.8733 9.937 13.7346 9.937 12.5C9.937 11.2501 10.1428 10.1076 10.5544 9.07239C10.966 8.02954 11.5453 7.13239 12.2923 6.38092C13.0392 5.62945 13.931 5.04668 14.9677 4.63261C16.0119 4.21087 17.1629 4 18.4205 4C19.6477 4 20.7186 4.19937 21.6333 4.5981C22.5556 4.98917 23.3445 5.5106 24 6.16238L22.971 7.60013C22.91 7.69215 22.83 7.77267 22.7309 7.84168C22.6394 7.91069 22.5099 7.9452 22.3422 7.9452C22.1669 7.9452 21.9877 7.87618 21.8048 7.73816C21.6219 7.60013 21.3894 7.45061 21.1074 7.28958C20.8253 7.12855 20.4671 6.97903 20.0326 6.841C19.6058 6.70298 19.0608 6.63396 18.3977 6.63396C17.6202 6.63396 16.9037 6.77199 16.2482 7.04804C15.6003 7.31642 15.0401 7.70365 14.5675 8.20974C14.1025 8.71583 13.7367 9.33311 13.4699 10.0616C13.2107 10.7824 13.0812 11.5952 13.0812 12.5C13.0812 13.4355 13.2107 14.2675 13.4699 14.9959C13.7367 15.7244 14.0949 16.3378 14.5446 16.8363C14.9943 17.3347 15.5241 17.7181 16.1339 17.9865C16.7436 18.2472 17.3992 18.3775 18.1004 18.3775C18.5196 18.3775 18.8969 18.3545 19.2323 18.3085C19.5753 18.2625 19.8878 18.1897 20.1698 18.09C20.4595 17.9903 20.7301 17.8638 20.9816 17.7104C21.2408 17.5494 21.4961 17.3539 21.7476 17.1238C21.8239 17.0548 21.9039 17.0011 21.9877 16.9628C22.0716 16.9168 22.163 16.8938 22.2621 16.8938Z" fill="#4178FF"/>
</svg>
