<svg width="26" height="25" viewBox="0 0 26 25" fill="none" xmlns="http://www.w3.org/2000/svg">
<path d="M1 5.5H25" stroke="currentColor" stroke-linecap="round" stroke-linejoin="round"/>
<path d="M1 12.5H25" stroke="currentColor" stroke-linecap="round" stroke-linejoin="round"/>
<path d="M1 19.5H25" stroke="currentColor" stroke-linecap="round" stroke-linejoin="round"/>
<path d="M7 7.5C8.10457 7.5 9 6.60457 9 5.5C9 4.39543 8.10457 3.5 7 3.5C5.89543 3.5 5 4.39543 5 5.5C5 6.60457 5.89543 7.5 7 7.5Z" fill="#F1F1F1" stroke="currentColor" stroke-linecap="round" stroke-linejoin="round"/>
<path d="M18 14.5C19.1046 14.5 20 13.6046 20 12.5C20 11.3954 19.1046 10.5 18 10.5C16.8954 10.5 16 11.3954 16 12.5C16 13.6046 16.8954 14.5 18 14.5Z" fill="#F1F1F1" stroke="currentColor" stroke-linecap="round" stroke-linejoin="round"/>
<path d="M10 21.5C11.1046 21.5 12 20.6046 12 19.5C12 18.3954 11.1046 17.5 10 17.5C8.89543 17.5 8 18.3954 8 19.5C8 20.6046 8.89543 21.5 10 21.5Z" fill="#F1F1F1" stroke="currentColor" stroke-linecap="round" stroke-linejoin="round"/>
</svg>
