<svg width="24" height="25" viewBox="0 0 24 25" fill="none" xmlns="http://www.w3.org/2000/svg">
<path d="M15.4999 8.49977H20.4995M15.4999 12.5H20.4995M15.4999 16.5002H20.4995M21.5124 1H18.3863V1.50025C18.3863 1.89802 18.2283 2.2795 17.9471 2.56076C17.6658 2.84203 17.2843 3.00004 16.8865 3.00004C16.4888 3.00004 16.1073 2.84203 15.826 2.56076C15.5448 2.2795 15.3868 1.89802 15.3868 1.50025V1H8.61421V1.50025C8.61421 1.89802 8.4562 2.2795 8.17493 2.56076C7.89366 2.84203 7.51219 3.00004 7.11442 3.00004C6.71665 3.00004 6.33517 2.84203 6.0539 2.56076C5.77264 2.2795 5.61462 1.89802 5.61462 1.50025V1H2.48758C1.96044 1 1.45489 1.20941 1.08215 1.58215C0.709405 1.95489 0.5 2.46044 0.5 2.98758V22.0124C0.5 22.2734 0.55141 22.5319 0.651296 22.773C0.751181 23.0142 0.897585 23.2333 1.08215 23.4179C1.26671 23.6024 1.48582 23.7488 1.72697 23.8487C1.96811 23.9486 2.22657 24 2.48758 24H21.5124C21.7734 24 22.0319 23.9486 22.273 23.8487C22.5142 23.7488 22.7333 23.6024 22.9179 23.4179C23.1024 23.2333 23.2488 23.0142 23.3487 22.773C23.4486 22.5319 23.5 22.2734 23.5 22.0124V2.98758C23.5 2.72657 23.4486 2.46811 23.3487 2.22697C23.2488 1.98582 23.1024 1.76671 22.9179 1.58215C22.7333 1.39759 22.5142 1.25118 22.273 1.1513C22.0319 1.05141 21.7734 1 21.5124 1ZM9.50045 9.99974C9.50045 10.3953 9.38315 10.782 9.16338 11.1109C8.94362 11.4398 8.63125 11.6962 8.26579 11.8475C7.90033 11.9989 7.49819 12.0385 7.11022 11.9614C6.72225 11.8842 6.36588 11.6937 6.08617 11.414C5.80645 11.1343 5.61597 10.7779 5.5388 10.3899C5.46163 10.002 5.50123 9.59982 5.65261 9.23436C5.80399 8.8689 6.06034 8.55654 6.38925 8.33677C6.71815 8.117 7.10484 7.9997 7.50041 7.9997C7.76306 7.9997 8.02314 8.05143 8.26579 8.15195C8.50845 8.25246 8.72893 8.39978 8.91465 8.5855C9.10037 8.77122 9.24769 8.9917 9.34821 9.23436C9.44872 9.47702 9.50045 9.73709 9.50045 9.99974ZM11.5007 17.0002H3.50056L4.27298 14.6839C4.3383 14.4847 4.46458 14.3111 4.63398 14.1876C4.80338 14.0642 5.00732 13.9971 5.21694 13.9958H9.77956C9.98953 13.9958 10.1942 14.0619 10.3645 14.1847C10.5348 14.3075 10.6621 14.4808 10.7283 14.6801L11.5007 17.0002Z" stroke="currentColor" stroke-linecap="round" stroke-linejoin="round"/>
</svg>
