<svg width="26" height="25" viewBox="0 0 26 25" fill="none" xmlns="http://www.w3.org/2000/svg">
<path d="M19.0835 6.53108L8.36702 17.258M11.4348 8.84782C11.4348 10.0004 10.5004 10.9348 9.34783 10.9348C8.19523 10.9348 7.26087 10.0004 7.26087 8.84782C7.26087 7.69523 8.19523 6.76087 9.34783 6.76087C10.5004 6.76087 11.4348 7.69523 11.4348 8.84782ZM1 16.1522C2.73217 16.1522 4.13043 14.7539 4.13043 13.0217C4.13043 11.2896 2.73217 9.8913 1 9.8913V4.67391C1 4.1 1.46957 3.63043 2.04348 3.63043H23.9565C24.5304 3.63043 25 4.1 25 4.67391V9.8913C23.2678 9.8913 21.8696 11.2896 21.8696 13.0217C21.8696 14.7539 23.2678 16.1522 25 16.1522V20.3261C25 20.9 24.5304 21.3696 23.9565 21.3696H2.04348C1.46957 21.3696 1 20.9 1 20.3261V16.1522ZM19.7826 16.1522C19.7826 17.3048 18.8482 18.2391 17.6957 18.2391C16.5431 18.2391 15.6087 17.3048 15.6087 16.1522C15.6087 14.9996 16.5431 14.0652 17.6957 14.0652C18.8482 14.0652 19.7826 14.9996 19.7826 16.1522Z" stroke="currentColor" stroke-miterlimit="10" stroke-linecap="round"/>
</svg>
